<svg width="25" height="25" viewBox="0 0 25 25" fill="none" xmlns="http://www.w3.org/2000/svg">
<path d="M21.875 10.9372H20.8333V9.89551C20.8333 9.61924 20.7236 9.35429 20.5282 9.15894C20.3329 8.96359 20.0679 8.85384 19.7916 8.85384C19.5154 8.85384 19.2504 8.96359 19.0551 9.15894C18.8597 9.35429 18.75 9.61924 18.75 9.89551V10.9372H17.7083C17.432 10.9372 17.1671 11.0469 16.9717 11.2423C16.7764 11.4376 16.6666 11.7026 16.6666 11.9788C16.6666 12.2551 16.7764 12.5201 16.9717 12.7154C17.1671 12.9108 17.432 13.0205 17.7083 13.0205H18.75V14.0622C18.75 14.3384 18.8597 14.6034 19.0551 14.7987C19.2504 14.9941 19.5154 15.1038 19.7916 15.1038C20.0679 15.1038 20.3329 14.9941 20.5282 14.7987C20.7236 14.6034 20.8333 14.3384 20.8333 14.0622V13.0205H21.875C22.1512 13.0205 22.4162 12.9108 22.6116 12.7154C22.8069 12.5201 22.9166 12.2551 22.9166 11.9788C22.9166 11.7026 22.8069 11.4376 22.6116 11.2423C22.4162 11.0469 22.1512 10.9372 21.875 10.9372ZM13.8541 12.7288C14.41 12.2477 14.8558 11.6527 15.1613 10.9841C15.4669 10.3155 15.625 9.58896 15.625 8.85384C15.625 7.47251 15.0762 6.14775 14.0995 5.17099C13.1227 4.19424 11.798 3.64551 10.4166 3.64551C9.03531 3.64551 7.71055 4.19424 6.7338 5.17099C5.75705 6.14775 5.20831 7.47251 5.20831 8.85384C5.20831 9.58896 5.36644 10.3155 5.67199 10.9841C5.97753 11.6527 6.42334 12.2477 6.97915 12.7288C5.52096 13.3891 4.2838 14.4554 3.41558 15.8002C2.54737 17.1451 2.08485 18.7115 2.08331 20.3122C2.08331 20.5884 2.19306 20.8534 2.38841 21.0487C2.58376 21.2441 2.84871 21.3538 3.12498 21.3538C3.40125 21.3538 3.6662 21.2441 3.86155 21.0487C4.0569 20.8534 4.16665 20.5884 4.16665 20.3122C4.16665 18.6546 4.82513 17.0649 5.99723 15.8928C7.16933 14.7207 8.75904 14.0622 10.4166 14.0622C12.0743 14.0622 13.664 14.7207 14.8361 15.8928C16.0082 17.0649 16.6666 18.6546 16.6666 20.3122C16.6666 20.5884 16.7764 20.8534 16.9717 21.0487C17.1671 21.2441 17.432 21.3538 17.7083 21.3538C17.9846 21.3538 18.2495 21.2441 18.4449 21.0487C18.6402 20.8534 18.75 20.5884 18.75 20.3122C18.7484 18.7115 18.2859 17.1451 17.4177 15.8002C16.5495 14.4554 15.3123 13.3891 13.8541 12.7288ZM10.4166 11.9788C9.79858 11.9788 9.19439 11.7956 8.68049 11.4522C8.16659 11.1088 7.76605 10.6207 7.52952 10.0497C7.293 9.47871 7.23111 8.85038 7.35169 8.24418C7.47227 7.63799 7.7699 7.08117 8.20694 6.64413C8.64398 6.20709 9.2008 5.90947 9.80699 5.78889C10.4132 5.66831 11.0415 5.73019 11.6125 5.96672C12.1836 6.20324 12.6716 6.60378 13.015 7.11768C13.3584 7.63159 13.5416 8.23577 13.5416 8.85384C13.5416 9.68264 13.2124 10.4775 12.6264 11.0636C12.0403 11.6496 11.2454 11.9788 10.4166 11.9788Z" fill="#F2F2F2" fill-opacity="0.5"/>
</svg>
