<svg width="31" height="32" viewBox="0 0 31 32" fill="none" xmlns="http://www.w3.org/2000/svg">
<g opacity="0.25">
<path opacity="0.25" d="M28.8066 14.5756H26.3396V12.1085C26.3396 11.7814 26.2096 11.4676 25.9783 11.2363C25.7469 11.005 25.4332 10.875 25.106 10.875C24.7789 10.875 24.4651 11.005 24.2338 11.2363C24.0025 11.4676 23.8725 11.7814 23.8725 12.1085V14.5756H21.4054C21.0783 14.5756 20.7645 14.7056 20.5332 14.9369C20.3018 15.1682 20.1719 15.482 20.1719 15.8092C20.1719 16.1363 20.3018 16.4501 20.5332 16.6814C20.7645 16.9127 21.0783 17.0427 21.4054 17.0427H23.8725V19.5098C23.8725 19.8369 24.0025 20.1507 24.2338 20.382C24.4651 20.6134 24.7789 20.7433 25.106 20.7433C25.4332 20.7433 25.7469 20.6134 25.9783 20.382C26.2096 20.1507 26.3396 19.8369 26.3396 19.5098V17.0427H28.8066C29.1338 17.0427 29.4476 16.9127 29.6789 16.6814C29.9102 16.4501 30.0402 16.1363 30.0402 15.8092C30.0402 15.482 29.9102 15.1682 29.6789 14.9369C29.4476 14.7056 29.1338 14.5756 28.8066 14.5756Z" fill="#00E467"/>
<path opacity="0.25" d="M11.4559 15.8157C12.9289 15.8231 14.3708 15.3929 15.599 14.5798C16.8272 13.7667 17.7864 12.6072 18.3549 11.2483C18.9233 9.88948 19.0756 8.39244 18.7923 6.94697C18.5089 5.50151 17.8028 4.1727 16.7635 3.12899C15.7241 2.08528 14.3982 1.37368 12.9539 1.08436C11.5096 0.795038 10.012 0.941025 8.65077 1.50385C7.28956 2.06667 6.1261 3.02098 5.30787 4.24578C4.48964 5.47059 4.05349 6.91074 4.05469 8.38371C4.0563 10.349 4.8356 12.2337 6.22237 13.6263C7.60914 15.0188 9.49066 15.806 11.4559 15.8157ZM11.4559 3.42493C12.4318 3.42493 13.3858 3.71431 14.1972 4.25648C15.0086 4.79864 15.641 5.56924 16.0145 6.47083C16.3879 7.37242 16.4856 8.36451 16.2953 9.32163C16.1049 10.2788 15.6349 11.1579 14.9449 11.848C14.2548 12.538 13.3756 13.008 12.4185 13.1984C11.4614 13.3887 10.4693 13.291 9.56769 12.9176C8.6661 12.5441 7.89549 11.9117 7.35332 11.1003C6.81115 10.2889 6.52176 9.33493 6.52176 8.35905C6.52176 7.05044 7.04161 5.79542 7.96694 4.8701C8.89227 3.94477 10.1473 3.42493 11.4559 3.42493V3.42493Z" fill="#00E467"/>
<path opacity="0.25" d="M11.4575 18.2949C8.50211 18.2998 5.66924 19.4764 3.58003 21.5668C1.49081 23.6571 0.315762 26.4906 0.3125 29.446C0.3125 29.7732 0.442461 30.0869 0.673794 30.3182C0.905127 30.5496 1.21888 30.6795 1.54604 30.6795C1.87319 30.6795 2.18695 30.5496 2.41828 30.3182C2.64961 30.0869 2.77958 29.7732 2.77958 29.446C2.77958 27.1461 3.69321 24.9405 5.31948 23.3142C6.94575 21.6879 9.15145 20.7743 11.4513 20.7743C13.7512 20.7743 15.9569 21.6879 17.5832 23.3142C19.2095 24.9405 20.1231 27.1461 20.1231 29.446C20.1231 29.7732 20.2531 30.0869 20.4844 30.3182C20.7157 30.5496 21.0295 30.6795 21.3567 30.6795C21.6838 30.6795 21.9976 30.5496 22.2289 30.3182C22.4602 30.0869 22.5902 29.7732 22.5902 29.446C22.5869 26.4928 21.4136 23.6611 19.327 21.5711C17.2405 19.4811 14.4108 18.3031 11.4575 18.2949V18.2949Z" fill="#00E467"/>
</g>
<g opacity="0.25">
<path opacity="0.25" d="M28.8066 15.0522H26.3396V12.5851C26.3396 12.2579 26.2096 11.9442 25.9783 11.7129C25.7469 11.4815 25.4332 11.3516 25.106 11.3516C24.7789 11.3516 24.4651 11.4815 24.2338 11.7129C24.0025 11.9442 23.8725 12.2579 23.8725 12.5851V15.0522H21.4054C21.0783 15.0522 20.7645 15.1821 20.5332 15.4135C20.3018 15.6448 20.1719 15.9586 20.1719 16.2857C20.1719 16.6129 20.3018 16.9266 20.5332 17.158C20.7645 17.3893 21.0783 17.5193 21.4054 17.5193H23.8725V19.9863C23.8725 20.3135 24.0025 20.6273 24.2338 20.8586C24.4651 21.0899 24.7789 21.2199 25.106 21.2199C25.4332 21.2199 25.7469 21.0899 25.9783 20.8586C26.2096 20.6273 26.3396 20.3135 26.3396 19.9863V17.5193H28.8066C29.1338 17.5193 29.4476 17.3893 29.6789 17.158C29.9102 16.9266 30.0402 16.6129 30.0402 16.2857C30.0402 15.9586 29.9102 15.6448 29.6789 15.4135C29.4476 15.1821 29.1338 15.0522 28.8066 15.0522Z" fill="#00E467"/>
<path opacity="0.25" d="M11.4559 16.2923C12.9289 16.2996 14.3708 15.8695 15.599 15.0563C16.8272 14.2432 17.7864 13.0837 18.3549 11.7249C18.9233 10.366 19.0756 8.869 18.7923 7.42354C18.5089 5.97807 17.8028 4.64926 16.7635 3.60555C15.7241 2.56184 14.3982 1.85024 12.9539 1.56092C11.5096 1.2716 10.012 1.41759 8.65077 1.98041C7.28956 2.54323 6.1261 3.49754 5.30787 4.72235C4.48964 5.94715 4.05349 7.3873 4.05469 8.86027C4.0563 10.8255 4.8356 12.7103 6.22237 14.1028C7.60914 15.4954 9.49066 16.2825 11.4559 16.2923ZM11.4559 3.90149C12.4318 3.90149 13.3858 4.19087 14.1972 4.73304C15.0086 5.27521 15.641 6.0458 16.0145 6.94739C16.3879 7.84898 16.4856 8.84107 16.2953 9.7982C16.1049 10.7553 15.6349 11.6345 14.9449 12.3245C14.2548 13.0146 13.3756 13.4845 12.4185 13.6749C11.4614 13.8653 10.4693 13.7676 9.56769 13.3941C8.6661 13.0207 7.89549 12.3883 7.35332 11.5769C6.81115 10.7654 6.52176 9.81149 6.52176 8.83561C6.52176 7.527 7.04161 6.27199 7.96694 5.34666C8.89227 4.42133 10.1473 3.90149 11.4559 3.90149V3.90149Z" fill="#00E467"/>
<path opacity="0.25" d="M11.4575 18.7715C8.50211 18.7764 5.66924 19.953 3.58003 22.0433C1.49081 24.1337 0.315762 26.9672 0.3125 29.9226C0.3125 30.2497 0.442461 30.5635 0.673794 30.7948C0.905127 31.0261 1.21888 31.1561 1.54604 31.1561C1.87319 31.1561 2.18695 31.0261 2.41828 30.7948C2.64961 30.5635 2.77958 30.2497 2.77958 29.9226C2.77958 27.6227 3.69321 25.417 5.31948 23.7908C6.94575 22.1645 9.15145 21.2509 11.4513 21.2509C13.7512 21.2509 15.9569 22.1645 17.5832 23.7908C19.2095 25.417 20.1231 27.6227 20.1231 29.9226C20.1231 30.2497 20.2531 30.5635 20.4844 30.7948C20.7157 31.0261 21.0295 31.1561 21.3567 31.1561C21.6838 31.1561 21.9976 31.0261 22.2289 30.7948C22.4602 30.5635 22.5902 30.2497 22.5902 29.9226C22.5869 26.9693 21.4136 24.1377 19.327 22.0477C17.2405 19.9577 14.4108 18.7796 11.4575 18.7715V18.7715Z" fill="#00E467"/>
</g>
<g opacity="0.25">
<path opacity="0.25" d="M28.8066 14.5756H26.3396V12.1085C26.3396 11.7814 26.2096 11.4676 25.9783 11.2363C25.7469 11.005 25.4332 10.875 25.106 10.875C24.7789 10.875 24.4651 11.005 24.2338 11.2363C24.0025 11.4676 23.8725 11.7814 23.8725 12.1085V14.5756H21.4054C21.0783 14.5756 20.7645 14.7056 20.5332 14.9369C20.3018 15.1682 20.1719 15.482 20.1719 15.8092C20.1719 16.1363 20.3018 16.4501 20.5332 16.6814C20.7645 16.9127 21.0783 17.0427 21.4054 17.0427H23.8725V19.5098C23.8725 19.8369 24.0025 20.1507 24.2338 20.382C24.4651 20.6134 24.7789 20.7433 25.106 20.7433C25.4332 20.7433 25.7469 20.6134 25.9783 20.382C26.2096 20.1507 26.3396 19.8369 26.3396 19.5098V17.0427H28.8066C29.1338 17.0427 29.4476 16.9127 29.6789 16.6814C29.9102 16.4501 30.0402 16.1363 30.0402 15.8092C30.0402 15.482 29.9102 15.1682 29.6789 14.9369C29.4476 14.7056 29.1338 14.5756 28.8066 14.5756Z" fill="#00E467"/>
<path opacity="0.25" d="M11.4559 15.8157C12.9289 15.8231 14.3708 15.3929 15.599 14.5798C16.8272 13.7667 17.7864 12.6072 18.3549 11.2483C18.9233 9.88948 19.0756 8.39244 18.7923 6.94697C18.5089 5.50151 17.8028 4.1727 16.7635 3.12899C15.7241 2.08528 14.3982 1.37368 12.9539 1.08436C11.5096 0.795038 10.012 0.941025 8.65077 1.50385C7.28956 2.06667 6.1261 3.02098 5.30787 4.24578C4.48964 5.47059 4.05349 6.91074 4.05469 8.38371C4.0563 10.349 4.8356 12.2337 6.22237 13.6263C7.60914 15.0188 9.49066 15.806 11.4559 15.8157ZM11.4559 3.42493C12.4318 3.42493 13.3858 3.71431 14.1972 4.25648C15.0086 4.79864 15.641 5.56924 16.0145 6.47083C16.3879 7.37242 16.4856 8.36451 16.2953 9.32163C16.1049 10.2788 15.6349 11.1579 14.9449 11.848C14.2548 12.538 13.3756 13.008 12.4185 13.1984C11.4614 13.3887 10.4693 13.291 9.56769 12.9176C8.6661 12.5441 7.89549 11.9117 7.35332 11.1003C6.81115 10.2889 6.52176 9.33493 6.52176 8.35905C6.52176 7.05044 7.04161 5.79542 7.96694 4.8701C8.89227 3.94477 10.1473 3.42493 11.4559 3.42493V3.42493Z" fill="#00E467"/>
<path opacity="0.25" d="M11.4575 18.2949C8.50211 18.2998 5.66924 19.4764 3.58003 21.5668C1.49081 23.6571 0.315762 26.4906 0.3125 29.446C0.3125 29.7732 0.442461 30.0869 0.673794 30.3182C0.905127 30.5496 1.21888 30.6795 1.54604 30.6795C1.87319 30.6795 2.18695 30.5496 2.41828 30.3182C2.64961 30.0869 2.77958 29.7732 2.77958 29.446C2.77958 27.1461 3.69321 24.9405 5.31948 23.3142C6.94575 21.6879 9.15145 20.7743 11.4513 20.7743C13.7512 20.7743 15.9569 21.6879 17.5832 23.3142C19.2095 24.9405 20.1231 27.1461 20.1231 29.446C20.1231 29.7732 20.2531 30.0869 20.4844 30.3182C20.7157 30.5496 21.0295 30.6795 21.3567 30.6795C21.6838 30.6795 21.9976 30.5496 22.2289 30.3182C22.4602 30.0869 22.5902 29.7732 22.5902 29.446C22.5869 26.4928 21.4136 23.6611 19.327 21.5711C17.2405 19.4811 14.4108 18.3031 11.4575 18.2949V18.2949Z" fill="#00E467"/>
</g>
<g opacity="0.25">
<path opacity="0.25" d="M28.8066 15.0522H26.3396V12.5851C26.3396 12.2579 26.2096 11.9442 25.9783 11.7129C25.7469 11.4815 25.4332 11.3516 25.106 11.3516C24.7789 11.3516 24.4651 11.4815 24.2338 11.7129C24.0025 11.9442 23.8725 12.2579 23.8725 12.5851V15.0522H21.4054C21.0783 15.0522 20.7645 15.1821 20.5332 15.4135C20.3018 15.6448 20.1719 15.9586 20.1719 16.2857C20.1719 16.6129 20.3018 16.9266 20.5332 17.158C20.7645 17.3893 21.0783 17.5193 21.4054 17.5193H23.8725V19.9863C23.8725 20.3135 24.0025 20.6273 24.2338 20.8586C24.4651 21.0899 24.7789 21.2199 25.106 21.2199C25.4332 21.2199 25.7469 21.0899 25.9783 20.8586C26.2096 20.6273 26.3396 20.3135 26.3396 19.9863V17.5193H28.8066C29.1338 17.5193 29.4476 17.3893 29.6789 17.158C29.9102 16.9266 30.0402 16.6129 30.0402 16.2857C30.0402 15.9586 29.9102 15.6448 29.6789 15.4135C29.4476 15.1821 29.1338 15.0522 28.8066 15.0522Z" fill="#00E467"/>
<path opacity="0.25" d="M11.4559 16.2923C12.9289 16.2996 14.3708 15.8695 15.599 15.0563C16.8272 14.2432 17.7864 13.0837 18.3549 11.7249C18.9233 10.366 19.0756 8.869 18.7923 7.42354C18.5089 5.97807 17.8028 4.64926 16.7635 3.60555C15.7241 2.56184 14.3982 1.85024 12.9539 1.56092C11.5096 1.2716 10.012 1.41759 8.65077 1.98041C7.28956 2.54323 6.1261 3.49754 5.30787 4.72235C4.48964 5.94715 4.05349 7.3873 4.05469 8.86027C4.0563 10.8255 4.8356 12.7103 6.22237 14.1028C7.60914 15.4954 9.49066 16.2825 11.4559 16.2923ZM11.4559 3.90149C12.4318 3.90149 13.3858 4.19087 14.1972 4.73304C15.0086 5.27521 15.641 6.0458 16.0145 6.94739C16.3879 7.84898 16.4856 8.84107 16.2953 9.7982C16.1049 10.7553 15.6349 11.6345 14.9449 12.3245C14.2548 13.0146 13.3756 13.4845 12.4185 13.6749C11.4614 13.8653 10.4693 13.7676 9.56769 13.3941C8.6661 13.0207 7.89549 12.3883 7.35332 11.5769C6.81115 10.7654 6.52176 9.81149 6.52176 8.83561C6.52176 7.527 7.04161 6.27199 7.96694 5.34666C8.89227 4.42133 10.1473 3.90149 11.4559 3.90149V3.90149Z" fill="#00E467"/>
<path opacity="0.25" d="M11.4575 18.7715C8.50211 18.7764 5.66924 19.953 3.58003 22.0433C1.49081 24.1337 0.315762 26.9672 0.3125 29.9226C0.3125 30.2497 0.442461 30.5635 0.673794 30.7948C0.905127 31.0261 1.21888 31.1561 1.54604 31.1561C1.87319 31.1561 2.18695 31.0261 2.41828 30.7948C2.64961 30.5635 2.77958 30.2497 2.77958 29.9226C2.77958 27.6227 3.69321 25.417 5.31948 23.7908C6.94575 22.1645 9.15145 21.2509 11.4513 21.2509C13.7512 21.2509 15.9569 22.1645 17.5832 23.7908C19.2095 25.417 20.1231 27.6227 20.1231 29.9226C20.1231 30.2497 20.2531 30.5635 20.4844 30.7948C20.7157 31.0261 21.0295 31.1561 21.3567 31.1561C21.6838 31.1561 21.9976 31.0261 22.2289 30.7948C22.4602 30.5635 22.5902 30.2497 22.5902 29.9226C22.5869 26.9693 21.4136 24.1377 19.327 22.0477C17.2405 19.9577 14.4108 18.7796 11.4575 18.7715V18.7715Z" fill="#00E467"/>
</g>
<g opacity="0.25">
<path opacity="0.25" d="M28.8066 15.0522H26.3396V12.5851C26.3396 12.2579 26.2096 11.9442 25.9783 11.7129C25.7469 11.4815 25.4332 11.3516 25.106 11.3516C24.7789 11.3516 24.4651 11.4815 24.2338 11.7129C24.0025 11.9442 23.8725 12.2579 23.8725 12.5851V15.0522H21.4054C21.0783 15.0522 20.7645 15.1821 20.5332 15.4135C20.3018 15.6448 20.1719 15.9586 20.1719 16.2857C20.1719 16.6129 20.3018 16.9266 20.5332 17.158C20.7645 17.3893 21.0783 17.5193 21.4054 17.5193H23.8725V19.9863C23.8725 20.3135 24.0025 20.6273 24.2338 20.8586C24.4651 21.0899 24.7789 21.2199 25.106 21.2199C25.4332 21.2199 25.7469 21.0899 25.9783 20.8586C26.2096 20.6273 26.3396 20.3135 26.3396 19.9863V17.5193H28.8066C29.1338 17.5193 29.4476 17.3893 29.6789 17.158C29.9102 16.9266 30.0402 16.6129 30.0402 16.2857C30.0402 15.9586 29.9102 15.6448 29.6789 15.4135C29.4476 15.1821 29.1338 15.0522 28.8066 15.0522Z" fill="#00E467"/>
<path opacity="0.25" d="M11.4559 16.2923C12.9289 16.2996 14.3708 15.8695 15.599 15.0563C16.8272 14.2432 17.7864 13.0837 18.3549 11.7249C18.9233 10.366 19.0756 8.869 18.7923 7.42354C18.5089 5.97807 17.8028 4.64926 16.7635 3.60555C15.7241 2.56184 14.3982 1.85024 12.9539 1.56092C11.5096 1.2716 10.012 1.41759 8.65077 1.98041C7.28956 2.54323 6.1261 3.49754 5.30787 4.72235C4.48964 5.94715 4.05349 7.3873 4.05469 8.86027C4.0563 10.8255 4.8356 12.7103 6.22237 14.1028C7.60914 15.4954 9.49066 16.2825 11.4559 16.2923ZM11.4559 3.90149C12.4318 3.90149 13.3858 4.19087 14.1972 4.73304C15.0086 5.27521 15.641 6.0458 16.0145 6.94739C16.3879 7.84898 16.4856 8.84107 16.2953 9.7982C16.1049 10.7553 15.6349 11.6345 14.9449 12.3245C14.2548 13.0146 13.3756 13.4845 12.4185 13.6749C11.4614 13.8653 10.4693 13.7676 9.56769 13.3941C8.6661 13.0207 7.89549 12.3883 7.35332 11.5769C6.81115 10.7654 6.52176 9.81149 6.52176 8.83561C6.52176 7.527 7.04161 6.27199 7.96694 5.34666C8.89227 4.42133 10.1473 3.90149 11.4559 3.90149V3.90149Z" fill="#00E467"/>
<path opacity="0.25" d="M11.4575 18.7715C8.50211 18.7764 5.66924 19.953 3.58003 22.0433C1.49081 24.1337 0.315762 26.9672 0.3125 29.9226C0.3125 30.2497 0.442461 30.5635 0.673794 30.7948C0.905127 31.0261 1.21888 31.1561 1.54604 31.1561C1.87319 31.1561 2.18695 31.0261 2.41828 30.7948C2.64961 30.5635 2.77958 30.2497 2.77958 29.9226C2.77958 27.6227 3.69321 25.417 5.31948 23.7908C6.94575 22.1645 9.15145 21.2509 11.4513 21.2509C13.7512 21.2509 15.9569 22.1645 17.5832 23.7908C19.2095 25.417 20.1231 27.6227 20.1231 29.9226C20.1231 30.2497 20.2531 30.5635 20.4844 30.7948C20.7157 31.0261 21.0295 31.1561 21.3567 31.1561C21.6838 31.1561 21.9976 31.0261 22.2289 30.7948C22.4602 30.5635 22.5902 30.2497 22.5902 29.9226C22.5869 26.9693 21.4136 24.1377 19.327 22.0477C17.2405 19.9577 14.4108 18.7796 11.4575 18.7715V18.7715Z" fill="#00E467"/>
</g>
<g opacity="0.25">
<path opacity="0.25" d="M28.8066 15.0522H26.3396V12.5851C26.3396 12.2579 26.2096 11.9442 25.9783 11.7129C25.7469 11.4815 25.4332 11.3516 25.106 11.3516C24.7789 11.3516 24.4651 11.4815 24.2338 11.7129C24.0025 11.9442 23.8725 12.2579 23.8725 12.5851V15.0522H21.4054C21.0783 15.0522 20.7645 15.1821 20.5332 15.4135C20.3018 15.6448 20.1719 15.9586 20.1719 16.2857C20.1719 16.6129 20.3018 16.9266 20.5332 17.158C20.7645 17.3893 21.0783 17.5193 21.4054 17.5193H23.8725V19.9863C23.8725 20.3135 24.0025 20.6273 24.2338 20.8586C24.4651 21.0899 24.7789 21.2199 25.106 21.2199C25.4332 21.2199 25.7469 21.0899 25.9783 20.8586C26.2096 20.6273 26.3396 20.3135 26.3396 19.9863V17.5193H28.8066C29.1338 17.5193 29.4476 17.3893 29.6789 17.158C29.9102 16.9266 30.0402 16.6129 30.0402 16.2857C30.0402 15.9586 29.9102 15.6448 29.6789 15.4135C29.4476 15.1821 29.1338 15.0522 28.8066 15.0522Z" fill="#00E467"/>
<path opacity="0.25" d="M11.4559 16.2923C12.9289 16.2996 14.3708 15.8695 15.599 15.0563C16.8272 14.2432 17.7864 13.0837 18.3549 11.7249C18.9233 10.366 19.0756 8.869 18.7923 7.42354C18.5089 5.97807 17.8028 4.64926 16.7635 3.60555C15.7241 2.56184 14.3982 1.85024 12.9539 1.56092C11.5096 1.2716 10.012 1.41759 8.65077 1.98041C7.28956 2.54323 6.1261 3.49754 5.30787 4.72235C4.48964 5.94715 4.05349 7.3873 4.05469 8.86027C4.0563 10.8255 4.8356 12.7103 6.22237 14.1028C7.60914 15.4954 9.49066 16.2825 11.4559 16.2923ZM11.4559 3.90149C12.4318 3.90149 13.3858 4.19087 14.1972 4.73304C15.0086 5.27521 15.641 6.0458 16.0145 6.94739C16.3879 7.84898 16.4856 8.84107 16.2953 9.7982C16.1049 10.7553 15.6349 11.6345 14.9449 12.3245C14.2548 13.0146 13.3756 13.4845 12.4185 13.6749C11.4614 13.8653 10.4693 13.7676 9.56769 13.3941C8.6661 13.0207 7.89549 12.3883 7.35332 11.5769C6.81115 10.7654 6.52176 9.81149 6.52176 8.83561C6.52176 7.527 7.04161 6.27199 7.96694 5.34666C8.89227 4.42133 10.1473 3.90149 11.4559 3.90149V3.90149Z" fill="#00E467"/>
<path opacity="0.25" d="M11.4575 18.7715C8.50211 18.7764 5.66924 19.953 3.58003 22.0433C1.49081 24.1337 0.315762 26.9672 0.3125 29.9226C0.3125 30.2497 0.442461 30.5635 0.673794 30.7948C0.905127 31.0261 1.21888 31.1561 1.54604 31.1561C1.87319 31.1561 2.18695 31.0261 2.41828 30.7948C2.64961 30.5635 2.77958 30.2497 2.77958 29.9226C2.77958 27.6227 3.69321 25.417 5.31948 23.7908C6.94575 22.1645 9.15145 21.2509 11.4513 21.2509C13.7512 21.2509 15.9569 22.1645 17.5832 23.7908C19.2095 25.417 20.1231 27.6227 20.1231 29.9226C20.1231 30.2497 20.2531 30.5635 20.4844 30.7948C20.7157 31.0261 21.0295 31.1561 21.3567 31.1561C21.6838 31.1561 21.9976 31.0261 22.2289 30.7948C22.4602 30.5635 22.5902 30.2497 22.5902 29.9226C22.5869 26.9693 21.4136 24.1377 19.327 22.0477C17.2405 19.9577 14.4108 18.7796 11.4575 18.7715V18.7715Z" fill="#00E467"/>
</g>
<g opacity="0.25">
<path opacity="0.25" d="M28.8066 15.0522H26.3396V12.5851C26.3396 12.2579 26.2096 11.9442 25.9783 11.7129C25.7469 11.4815 25.4332 11.3516 25.106 11.3516C24.7789 11.3516 24.4651 11.4815 24.2338 11.7129C24.0025 11.9442 23.8725 12.2579 23.8725 12.5851V15.0522H21.4054C21.0783 15.0522 20.7645 15.1821 20.5332 15.4135C20.3018 15.6448 20.1719 15.9586 20.1719 16.2857C20.1719 16.6129 20.3018 16.9266 20.5332 17.158C20.7645 17.3893 21.0783 17.5193 21.4054 17.5193H23.8725V19.9863C23.8725 20.3135 24.0025 20.6273 24.2338 20.8586C24.4651 21.0899 24.7789 21.2199 25.106 21.2199C25.4332 21.2199 25.7469 21.0899 25.9783 20.8586C26.2096 20.6273 26.3396 20.3135 26.3396 19.9863V17.5193H28.8066C29.1338 17.5193 29.4476 17.3893 29.6789 17.158C29.9102 16.9266 30.0402 16.6129 30.0402 16.2857C30.0402 15.9586 29.9102 15.6448 29.6789 15.4135C29.4476 15.1821 29.1338 15.0522 28.8066 15.0522Z" fill="#00E467"/>
<path opacity="0.25" d="M11.4559 16.2923C12.9289 16.2996 14.3708 15.8695 15.599 15.0563C16.8272 14.2432 17.7864 13.0837 18.3549 11.7249C18.9233 10.366 19.0756 8.869 18.7923 7.42354C18.5089 5.97807 17.8028 4.64926 16.7635 3.60555C15.7241 2.56184 14.3982 1.85024 12.9539 1.56092C11.5096 1.2716 10.012 1.41759 8.65077 1.98041C7.28956 2.54323 6.1261 3.49754 5.30787 4.72235C4.48964 5.94715 4.05349 7.3873 4.05469 8.86027C4.0563 10.8255 4.8356 12.7103 6.22237 14.1028C7.60914 15.4954 9.49066 16.2825 11.4559 16.2923ZM11.4559 3.90149C12.4318 3.90149 13.3858 4.19087 14.1972 4.73304C15.0086 5.27521 15.641 6.0458 16.0145 6.94739C16.3879 7.84898 16.4856 8.84107 16.2953 9.7982C16.1049 10.7553 15.6349 11.6345 14.9449 12.3245C14.2548 13.0146 13.3756 13.4845 12.4185 13.6749C11.4614 13.8653 10.4693 13.7676 9.56769 13.3941C8.6661 13.0207 7.89549 12.3883 7.35332 11.5769C6.81115 10.7654 6.52176 9.81149 6.52176 8.83561C6.52176 7.527 7.04161 6.27199 7.96694 5.34666C8.89227 4.42133 10.1473 3.90149 11.4559 3.90149V3.90149Z" fill="#00E467"/>
<path opacity="0.25" d="M11.4575 18.7715C8.50211 18.7764 5.66924 19.953 3.58003 22.0433C1.49081 24.1337 0.315762 26.9672 0.3125 29.9226C0.3125 30.2497 0.442461 30.5635 0.673794 30.7948C0.905127 31.0261 1.21888 31.1561 1.54604 31.1561C1.87319 31.1561 2.18695 31.0261 2.41828 30.7948C2.64961 30.5635 2.77958 30.2497 2.77958 29.9226C2.77958 27.6227 3.69321 25.417 5.31948 23.7908C6.94575 22.1645 9.15145 21.2509 11.4513 21.2509C13.7512 21.2509 15.9569 22.1645 17.5832 23.7908C19.2095 25.417 20.1231 27.6227 20.1231 29.9226C20.1231 30.2497 20.2531 30.5635 20.4844 30.7948C20.7157 31.0261 21.0295 31.1561 21.3567 31.1561C21.6838 31.1561 21.9976 31.0261 22.2289 30.7948C22.4602 30.5635 22.5902 30.2497 22.5902 29.9226C22.5869 26.9693 21.4136 24.1377 19.327 22.0477C17.2405 19.9577 14.4108 18.7796 11.4575 18.7715V18.7715Z" fill="#00E467"/>
</g>
<g opacity="0.25">
<path opacity="0.25" d="M28.8066 15.0522H26.3396V12.5851C26.3396 12.2579 26.2096 11.9442 25.9783 11.7129C25.7469 11.4815 25.4332 11.3516 25.106 11.3516C24.7789 11.3516 24.4651 11.4815 24.2338 11.7129C24.0025 11.9442 23.8725 12.2579 23.8725 12.5851V15.0522H21.4054C21.0783 15.0522 20.7645 15.1821 20.5332 15.4135C20.3018 15.6448 20.1719 15.9586 20.1719 16.2857C20.1719 16.6129 20.3018 16.9266 20.5332 17.158C20.7645 17.3893 21.0783 17.5193 21.4054 17.5193H23.8725V19.9863C23.8725 20.3135 24.0025 20.6273 24.2338 20.8586C24.4651 21.0899 24.7789 21.2199 25.106 21.2199C25.4332 21.2199 25.7469 21.0899 25.9783 20.8586C26.2096 20.6273 26.3396 20.3135 26.3396 19.9863V17.5193H28.8066C29.1338 17.5193 29.4476 17.3893 29.6789 17.158C29.9102 16.9266 30.0402 16.6129 30.0402 16.2857C30.0402 15.9586 29.9102 15.6448 29.6789 15.4135C29.4476 15.1821 29.1338 15.0522 28.8066 15.0522Z" fill="#00E467"/>
<path opacity="0.25" d="M11.4559 16.2923C12.9289 16.2996 14.3708 15.8695 15.599 15.0563C16.8272 14.2432 17.7864 13.0837 18.3549 11.7249C18.9233 10.366 19.0756 8.869 18.7923 7.42354C18.5089 5.97807 17.8028 4.64926 16.7635 3.60555C15.7241 2.56184 14.3982 1.85024 12.9539 1.56092C11.5096 1.2716 10.012 1.41759 8.65077 1.98041C7.28956 2.54323 6.1261 3.49754 5.30787 4.72235C4.48964 5.94715 4.05349 7.3873 4.05469 8.86027C4.0563 10.8255 4.8356 12.7103 6.22237 14.1028C7.60914 15.4954 9.49066 16.2825 11.4559 16.2923ZM11.4559 3.90149C12.4318 3.90149 13.3858 4.19087 14.1972 4.73304C15.0086 5.27521 15.641 6.0458 16.0145 6.94739C16.3879 7.84898 16.4856 8.84107 16.2953 9.7982C16.1049 10.7553 15.6349 11.6345 14.9449 12.3245C14.2548 13.0146 13.3756 13.4845 12.4185 13.6749C11.4614 13.8653 10.4693 13.7676 9.56769 13.3941C8.6661 13.0207 7.89549 12.3883 7.35332 11.5769C6.81115 10.7654 6.52176 9.81149 6.52176 8.83561C6.52176 7.527 7.04161 6.27199 7.96694 5.34666C8.89227 4.42133 10.1473 3.90149 11.4559 3.90149V3.90149Z" fill="#00E467"/>
<path opacity="0.25" d="M11.4575 18.7715C8.50211 18.7764 5.66924 19.953 3.58003 22.0433C1.49081 24.1337 0.315762 26.9672 0.3125 29.9226C0.3125 30.2497 0.442461 30.5635 0.673794 30.7948C0.905127 31.0261 1.21888 31.1561 1.54604 31.1561C1.87319 31.1561 2.18695 31.0261 2.41828 30.7948C2.64961 30.5635 2.77958 30.2497 2.77958 29.9226C2.77958 27.6227 3.69321 25.417 5.31948 23.7908C6.94575 22.1645 9.15145 21.2509 11.4513 21.2509C13.7512 21.2509 15.9569 22.1645 17.5832 23.7908C19.2095 25.417 20.1231 27.6227 20.1231 29.9226C20.1231 30.2497 20.2531 30.5635 20.4844 30.7948C20.7157 31.0261 21.0295 31.1561 21.3567 31.1561C21.6838 31.1561 21.9976 31.0261 22.2289 30.7948C22.4602 30.5635 22.5902 30.2497 22.5902 29.9226C22.5869 26.9693 21.4136 24.1377 19.327 22.0477C17.2405 19.9577 14.4108 18.7796 11.4575 18.7715V18.7715Z" fill="#00E467"/>
</g>
<g opacity="0.25">
<path opacity="0.25" d="M28.8066 15.0522H26.3396V12.5851C26.3396 12.2579 26.2096 11.9442 25.9783 11.7129C25.7469 11.4815 25.4332 11.3516 25.106 11.3516C24.7789 11.3516 24.4651 11.4815 24.2338 11.7129C24.0025 11.9442 23.8725 12.2579 23.8725 12.5851V15.0522H21.4054C21.0783 15.0522 20.7645 15.1821 20.5332 15.4135C20.3018 15.6448 20.1719 15.9586 20.1719 16.2857C20.1719 16.6129 20.3018 16.9266 20.5332 17.158C20.7645 17.3893 21.0783 17.5193 21.4054 17.5193H23.8725V19.9863C23.8725 20.3135 24.0025 20.6273 24.2338 20.8586C24.4651 21.0899 24.7789 21.2199 25.106 21.2199C25.4332 21.2199 25.7469 21.0899 25.9783 20.8586C26.2096 20.6273 26.3396 20.3135 26.3396 19.9863V17.5193H28.8066C29.1338 17.5193 29.4476 17.3893 29.6789 17.158C29.9102 16.9266 30.0402 16.6129 30.0402 16.2857C30.0402 15.9586 29.9102 15.6448 29.6789 15.4135C29.4476 15.1821 29.1338 15.0522 28.8066 15.0522Z" fill="#00E467"/>
<path opacity="0.25" d="M11.4559 16.2923C12.9289 16.2996 14.3708 15.8695 15.599 15.0563C16.8272 14.2432 17.7864 13.0837 18.3549 11.7249C18.9233 10.366 19.0756 8.869 18.7923 7.42354C18.5089 5.97807 17.8028 4.64926 16.7635 3.60555C15.7241 2.56184 14.3982 1.85024 12.9539 1.56092C11.5096 1.2716 10.012 1.41759 8.65077 1.98041C7.28956 2.54323 6.1261 3.49754 5.30787 4.72235C4.48964 5.94715 4.05349 7.3873 4.05469 8.86027C4.0563 10.8255 4.8356 12.7103 6.22237 14.1028C7.60914 15.4954 9.49066 16.2825 11.4559 16.2923ZM11.4559 3.90149C12.4318 3.90149 13.3858 4.19087 14.1972 4.73304C15.0086 5.27521 15.641 6.0458 16.0145 6.94739C16.3879 7.84898 16.4856 8.84107 16.2953 9.7982C16.1049 10.7553 15.6349 11.6345 14.9449 12.3245C14.2548 13.0146 13.3756 13.4845 12.4185 13.6749C11.4614 13.8653 10.4693 13.7676 9.56769 13.3941C8.6661 13.0207 7.89549 12.3883 7.35332 11.5769C6.81115 10.7654 6.52176 9.81149 6.52176 8.83561C6.52176 7.527 7.04161 6.27199 7.96694 5.34666C8.89227 4.42133 10.1473 3.90149 11.4559 3.90149V3.90149Z" fill="#00E467"/>
<path opacity="0.25" d="M11.4575 18.7715C8.50211 18.7764 5.66924 19.953 3.58003 22.0433C1.49081 24.1337 0.315762 26.9672 0.3125 29.9226C0.3125 30.2497 0.442461 30.5635 0.673794 30.7948C0.905127 31.0261 1.21888 31.1561 1.54604 31.1561C1.87319 31.1561 2.18695 31.0261 2.41828 30.7948C2.64961 30.5635 2.77958 30.2497 2.77958 29.9226C2.77958 27.6227 3.69321 25.417 5.31948 23.7908C6.94575 22.1645 9.15145 21.2509 11.4513 21.2509C13.7512 21.2509 15.9569 22.1645 17.5832 23.7908C19.2095 25.417 20.1231 27.6227 20.1231 29.9226C20.1231 30.2497 20.2531 30.5635 20.4844 30.7948C20.7157 31.0261 21.0295 31.1561 21.3567 31.1561C21.6838 31.1561 21.9976 31.0261 22.2289 30.7948C22.4602 30.5635 22.5902 30.2497 22.5902 29.9226C22.5869 26.9693 21.4136 24.1377 19.327 22.0477C17.2405 19.9577 14.4108 18.7796 11.4575 18.7715V18.7715Z" fill="#00E467"/>
</g>
</svg>
