<svg width="25" height="25" viewBox="0 0 25 25" fill="none" xmlns="http://www.w3.org/2000/svg">
<path opacity="0.5" d="M18.7498 13.7279V10.4154C18.7483 8.93945 18.2246 7.51169 17.2713 6.38492C16.318 5.25816 14.9968 4.5051 13.5415 4.25911V3.1237C13.5415 2.84743 13.4318 2.58248 13.2364 2.38713C13.0411 2.19178 12.7761 2.08203 12.4998 2.08203C12.2236 2.08203 11.9586 2.19178 11.7633 2.38713C11.5679 2.58248 11.4582 2.84743 11.4582 3.1237V4.25911C10.0029 4.5051 8.68163 5.25816 7.72836 6.38492C6.77509 7.51169 6.25133 8.93945 6.24984 10.4154V13.7279C5.64197 13.9428 5.11546 14.3404 4.74248 14.8663C4.3695 15.3922 4.16832 16.0206 4.1665 16.6654V18.7487C4.1665 19.025 4.27625 19.2899 4.4716 19.4853C4.66695 19.6806 4.9319 19.7904 5.20817 19.7904H8.479C8.71888 20.673 9.24255 21.4523 9.96921 22.0078C10.6959 22.5633 11.5851 22.8643 12.4998 22.8643C13.4145 22.8643 14.3038 22.5633 15.0305 22.0078C15.7571 21.4523 16.2808 20.673 16.5207 19.7904H19.7915C20.0678 19.7904 20.3327 19.6806 20.5281 19.4853C20.7234 19.2899 20.8332 19.025 20.8332 18.7487V16.6654C20.8314 16.0206 20.6302 15.3922 20.2572 14.8663C19.8842 14.3404 19.3577 13.9428 18.7498 13.7279V13.7279ZM8.33317 10.4154C8.33317 9.3103 8.77216 8.25049 9.55356 7.46909C10.335 6.68768 11.3948 6.2487 12.4998 6.2487C13.6049 6.2487 14.6647 6.68768 15.4461 7.46909C16.2275 8.25049 16.6665 9.3103 16.6665 10.4154V13.5404H8.33317V10.4154ZM12.4998 20.832C12.1363 20.8298 11.7796 20.7325 11.4653 20.5498C11.151 20.3671 10.89 20.1052 10.7082 19.7904H14.2915C14.1097 20.1052 13.8487 20.3671 13.5344 20.5498C13.2201 20.7325 12.8634 20.8298 12.4998 20.832ZM18.7498 17.707H6.24984V16.6654C6.24984 16.3891 6.35958 16.1241 6.55493 15.9288C6.75028 15.7334 7.01524 15.6237 7.2915 15.6237H17.7082C17.9844 15.6237 18.2494 15.7334 18.4447 15.9288C18.6401 16.1241 18.7498 16.3891 18.7498 16.6654V17.707Z" fill="#F2F2F2"/>
</svg>
