<svg width="25" height="25" viewBox="0 0 25 25" fill="none" xmlns="http://www.w3.org/2000/svg">
<path d="M13.8541 12.7288C14.41 12.2477 14.8558 11.6527 15.1613 10.9841C15.4669 10.3155 15.625 9.58896 15.625 8.85384C15.625 7.47251 15.0762 6.14775 14.0995 5.17099C13.1227 4.19424 11.798 3.64551 10.4166 3.64551C9.03531 3.64551 7.71055 4.19424 6.7338 5.17099C5.75705 6.14775 5.20831 7.47251 5.20831 8.85384C5.2083 9.58896 5.36644 10.3155 5.67199 10.9841C5.97753 11.6527 6.42334 12.2477 6.97915 12.7288C5.52096 13.3891 4.2838 14.4554 3.41558 15.8002C2.54737 17.1451 2.08485 18.7115 2.08331 20.3122C2.08331 20.5884 2.19306 20.8534 2.38841 21.0487C2.58376 21.2441 2.84871 21.3538 3.12498 21.3538C3.40125 21.3538 3.6662 21.2441 3.86155 21.0487C4.0569 20.8534 4.16665 20.5884 4.16665 20.3122C4.16665 18.6546 4.82513 17.0649 5.99723 15.8928C7.16933 14.7207 8.75904 14.0622 10.4166 14.0622C12.0742 14.0622 13.664 14.7207 14.8361 15.8928C16.0082 17.0649 16.6666 18.6546 16.6666 20.3122C16.6666 20.5884 16.7764 20.8534 16.9717 21.0487C17.1671 21.2441 17.432 21.3538 17.7083 21.3538C17.9846 21.3538 18.2495 21.2441 18.4449 21.0487C18.6402 20.8534 18.75 20.5884 18.75 20.3122C18.7484 18.7115 18.2859 17.1451 17.4177 15.8002C16.5495 14.4554 15.3123 13.3891 13.8541 12.7288ZM10.4166 11.9788C9.79858 11.9788 9.19439 11.7956 8.68049 11.4522C8.16659 11.1088 7.76605 10.6207 7.52952 10.0497C7.293 9.47871 7.23111 8.85038 7.35169 8.24418C7.47227 7.63799 7.7699 7.08117 8.20694 6.64413C8.64398 6.20709 9.2008 5.90947 9.80699 5.78889C10.4132 5.66831 11.0415 5.73019 11.6125 5.96672C12.1836 6.20324 12.6716 6.60378 13.015 7.11768C13.3584 7.63159 13.5416 8.23577 13.5416 8.85384C13.5416 9.68264 13.2124 10.4775 12.6264 11.0636C12.0403 11.6496 11.2454 11.9788 10.4166 11.9788ZM21.7812 12.4997L22.6146 11.6768C22.7117 11.5796 22.7887 11.4643 22.8413 11.3374C22.8939 11.2105 22.9209 11.0745 22.9209 10.9372C22.9209 10.7998 22.8939 10.6638 22.8413 10.5369C22.7887 10.41 22.7117 10.2947 22.6146 10.1976C22.5174 10.1005 22.4021 10.0234 22.2752 9.97086C22.1483 9.9183 22.0123 9.89125 21.875 9.89125C21.7376 9.89125 21.6016 9.9183 21.4747 9.97086C21.3478 10.0234 21.2325 10.1005 21.1354 10.1976L20.3125 11.0309L19.4896 10.1976C19.3924 10.1005 19.2771 10.0234 19.1502 9.97086C19.0233 9.9183 18.8873 9.89125 18.75 9.89125C18.4726 9.89125 18.2065 10.0014 18.0104 10.1976C17.9133 10.2947 17.8362 10.41 17.7837 10.5369C17.7311 10.6638 17.7041 10.7998 17.7041 10.9372C17.7041 11.2146 17.8142 11.4806 18.0104 11.6768L18.8437 12.4997L18.0104 13.3226C17.9128 13.4194 17.8353 13.5346 17.7824 13.6616C17.7295 13.7885 17.7023 13.9247 17.7023 14.0622C17.7023 14.1997 17.7295 14.3358 17.7824 14.4628C17.8353 14.5897 17.9128 14.7049 18.0104 14.8018C18.1072 14.8994 18.2224 14.9769 18.3494 15.0298C18.4763 15.0827 18.6125 15.1099 18.75 15.1099C18.8875 15.1099 19.0236 15.0827 19.1506 15.0298C19.2775 14.9769 19.3927 14.8994 19.4896 14.8018L20.3125 13.9684L21.1354 14.8018C21.2322 14.8994 21.3474 14.9769 21.4744 15.0298C21.6013 15.0827 21.7375 15.1099 21.875 15.1099C22.0125 15.1099 22.1486 15.0827 22.2756 15.0298C22.4025 14.9769 22.5177 14.8994 22.6146 14.8018C22.7122 14.7049 22.7897 14.5897 22.8426 14.4628C22.8955 14.3358 22.9227 14.1997 22.9227 14.0622C22.9227 13.9247 22.8955 13.7885 22.8426 13.6616C22.7897 13.5346 22.7122 13.4194 22.6146 13.3226L21.7812 12.4997Z" fill="#F2F2F2" fill-opacity="0.5"/>
</svg>
