<svg width="35" height="26" viewBox="0 0 35 26" fill="none" xmlns="http://www.w3.org/2000/svg">
<path opacity="0.25" d="M8.02531 23.7694C8.06958 22.5794 8.30706 21.4046 8.72843 20.2908C8.81477 20.0626 8.78393 19.9701 8.5619 19.8714C7.89963 19.5723 7.16396 19.4748 6.44664 19.5911C5.72932 19.7073 5.06211 20.0322 4.52822 20.5252C3.95761 20.9621 3.50329 21.5326 3.20534 22.1866C2.90739 22.8406 2.77498 23.5579 2.81977 24.2751C2.83345 24.4931 2.78214 24.7103 2.67235 24.8991C2.56256 25.088 2.39922 25.24 2.203 25.336C2.03438 25.4403 1.84002 25.4955 1.64174 25.4955C1.44347 25.4955 1.24911 25.4403 1.08048 25.336C0.917305 25.2463 0.779608 25.1166 0.680346 24.9591C0.581084 24.8016 0.523519 24.6214 0.513058 24.4355C0.426899 22.7703 0.95144 21.1308 1.98823 19.8249C3.02502 18.519 4.50278 17.6364 6.14416 17.3427C7.31392 17.1509 8.51436 17.3344 9.5734 17.8669C9.82011 17.9903 9.90029 17.9224 10.036 17.7312C11.9973 14.9928 14.6556 13.5249 18.054 13.6544C19.4894 13.6942 20.8942 14.0793 22.1493 14.7772C23.4043 15.475 24.4727 16.465 25.264 17.6634C25.4429 17.9101 25.5539 17.9533 25.8376 17.8237C28.2492 16.7259 30.451 17.207 32.4124 18.8476C33.2268 19.5054 33.8718 20.3487 34.2935 21.3069C34.7152 22.2651 34.9013 23.3104 34.8363 24.3553C34.8326 24.5051 34.7995 24.6528 34.7388 24.7898C34.6781 24.9269 34.591 25.0506 34.4825 25.154C34.3739 25.2574 34.2461 25.3384 34.1063 25.3923C33.9664 25.4463 33.8173 25.4722 33.6675 25.4686C33.5177 25.4649 33.37 25.4318 33.233 25.3711C33.0959 25.3104 32.9722 25.2233 32.8688 25.1147C32.7654 25.0062 32.6844 24.8784 32.6305 24.7386C32.5765 24.5987 32.5506 24.4496 32.5542 24.2998C32.6063 23.5056 32.4437 22.7119 32.0834 22.0022C31.7231 21.2925 31.1784 20.6928 30.5066 20.2661C29.9898 19.876 29.3778 19.6317 28.7344 19.5591C28.091 19.4864 27.4399 19.5878 26.8491 19.8529C26.6394 19.9454 26.5531 20.0194 26.6517 20.2908C27.1166 21.5168 27.3589 22.8159 27.3672 24.1271C27.3842 24.2838 27.369 24.4424 27.3227 24.5931C27.2763 24.7438 27.1997 24.8834 27.0975 25.0035C26.9953 25.1236 26.8697 25.2216 26.7284 25.2914C26.5871 25.3613 26.433 25.4017 26.2755 25.41C26.1169 25.4189 25.9581 25.3942 25.8096 25.3376C25.6612 25.2809 25.5263 25.1935 25.414 25.0812C25.3016 24.9688 25.2142 24.834 25.1575 24.6855C25.1009 24.537 25.0762 24.3783 25.0852 24.2196C25.0868 22.4962 24.5968 20.8081 23.6727 19.3533C23.1467 18.4653 22.4322 17.7034 21.5796 17.1216C20.7271 16.5397 19.7573 16.152 18.7386 15.9858C17.5758 15.7852 16.3806 15.897 15.2753 16.3099C14.1699 16.7228 13.1941 17.4219 12.4475 18.3356C11.133 19.8178 10.3724 21.7096 10.295 23.6892C10.295 23.9359 10.295 24.1888 10.2457 24.4355C10.2102 24.7162 10.0695 24.9729 9.85192 25.1538C9.63438 25.3347 9.35627 25.4263 9.07382 25.41C8.79744 25.3987 8.53483 25.2863 8.33586 25.0941C8.13689 24.902 8.0154 24.6434 7.99447 24.3676C8.0068 24.1764 8.02531 23.9729 8.02531 23.7694Z" fill="url(#paint0_linear_142_3936)"/>
<path opacity="0.25" d="M17.5417 0.337894C16.4276 0.337937 15.3385 0.667719 14.4115 1.28567C13.4846 1.90363 12.7612 2.78211 12.3327 3.81045C11.9041 4.83878 11.7895 5.97095 12.0033 7.06431C12.2171 8.15766 12.7497 9.16328 13.534 9.95446C14.3184 10.7456 15.3193 11.287 16.4107 11.5103C17.5022 11.7336 18.6353 11.6288 19.6673 11.2093C20.6994 10.7897 21.5841 10.074 22.2101 9.15246C22.8361 8.23091 23.1754 7.14471 23.1851 6.0307C23.1924 5.28522 23.0518 4.54568 22.7714 3.85491C22.491 3.16414 22.0764 2.53585 21.5516 2.0064C21.0267 1.47696 20.4021 1.05687 19.7137 0.77047C19.0254 0.484069 18.2872 0.337042 17.5417 0.337894ZM17.5108 9.34275C16.8458 9.33661 16.1975 9.13332 15.648 8.75862C15.0986 8.38392 14.6726 7.85463 14.4241 7.23775C14.1755 6.62088 14.1155 5.94414 14.2517 5.29316C14.3879 4.64218 14.7141 4.04624 15.1891 3.58074C15.6641 3.11524 16.2665 2.80109 16.9201 2.67808C17.5737 2.55507 18.2491 2.62871 18.8609 2.88968C19.4726 3.15065 19.9931 3.58722 20.3567 4.14415C20.7202 4.70108 20.9103 5.35332 20.9031 6.01835C20.899 6.45949 20.808 6.89551 20.6353 7.30145C20.4626 7.70739 20.2115 8.07529 19.8964 8.38407C19.5813 8.69286 19.2084 8.93646 18.7991 9.10096C18.3897 9.26546 17.952 9.34764 17.5108 9.34275V9.34275Z" fill="url(#paint1_linear_142_3936)"/>
<path opacity="0.25" d="M7.08336 6.26598C6.23151 6.22811 5.38752 6.44335 4.65784 6.88452C3.92815 7.32569 3.34543 7.97305 2.98319 8.74496C2.62094 9.51687 2.49539 10.3788 2.62235 11.2219C2.74931 12.0651 3.12311 12.8518 3.6966 13.4828C4.2701 14.1138 5.01761 14.5609 5.84486 14.7676C6.6721 14.9744 7.54204 14.9315 8.34497 14.6445C9.14789 14.3574 9.84784 13.8391 10.3565 13.1548C10.8652 12.4704 11.1599 11.6508 11.2034 10.7992C11.2324 10.2306 11.1487 9.66186 10.957 9.12573C10.7654 8.58961 10.4695 8.09669 10.0866 7.67535C9.70367 7.25401 9.24118 6.91257 8.72576 6.6707C8.21033 6.42882 7.65215 6.29127 7.08336 6.26598V6.26598ZM6.86749 12.668C6.45875 12.6692 6.0589 12.5488 5.7188 12.3221C5.37871 12.0953 5.11375 11.7726 4.95763 11.3948C4.80152 11.0171 4.76131 10.6014 4.84212 10.2008C4.92292 9.8001 5.1211 9.43253 5.41142 9.14482C5.70175 8.85711 6.0711 8.66226 6.47249 8.58508C6.87388 8.50791 7.28915 8.55187 7.66547 8.7114C8.04179 8.87093 8.36215 9.1388 8.58578 9.48093C8.80942 9.82306 8.92622 10.224 8.92133 10.6327C8.91645 11.1742 8.69791 11.6919 8.31327 12.073C7.92863 12.4542 7.40901 12.668 6.86749 12.668V12.668Z" fill="url(#paint2_linear_142_3936)"/>
<path opacity="0.25" d="M28.4224 6.26561C27.5727 6.22952 26.7313 6.44522 26.0037 6.88562C25.2761 7.32602 24.6947 7.97151 24.3327 8.74109C23.9706 9.51067 23.8439 10.37 23.9684 11.2114C24.093 12.0527 24.4632 12.8385 25.0328 13.4702C25.6023 14.1018 26.3457 14.5512 27.1696 14.7619C27.9936 14.9726 28.8615 14.9353 29.6643 14.6546C30.4671 14.3738 31.1692 13.8622 31.6823 13.184C32.1954 12.5057 32.4968 11.691 32.5486 10.8421C32.5794 10.2704 32.4969 9.69822 32.306 9.15848C32.1151 8.61873 31.8195 8.12199 31.4361 7.69679C31.0527 7.27158 30.5891 6.92628 30.072 6.68068C29.5548 6.43508 28.9943 6.29402 28.4224 6.26561V6.26561ZM28.2066 12.6677C27.7978 12.6677 27.3984 12.546 27.059 12.3183C26.7195 12.0905 26.4556 11.767 26.3006 11.3887C26.1456 11.0105 26.1067 10.5948 26.1887 10.1943C26.2707 9.79391 26.47 9.42692 26.7612 9.14009C27.0524 8.85325 27.4223 8.65953 27.8239 8.58357C28.2255 8.5076 28.6407 8.55282 29.0165 8.71348C29.3923 8.87413 29.7119 9.14296 29.9345 9.48576C30.1571 9.82856 30.2727 10.2298 30.2666 10.6385C30.2553 11.1785 30.0337 11.6928 29.649 12.0718C29.2642 12.4508 28.7467 12.6646 28.2066 12.6677V12.6677Z" fill="url(#paint3_linear_142_3936)"/>
<defs>
<linearGradient id="paint0_linear_142_3936" x1="3.19802" y1="15.4385" x2="12.1628" y2="33.2337" gradientUnits="userSpaceOnUse">
<stop stop-color="#00E467"/>
<stop offset="1" stop-color="#55DA49"/>
</linearGradient>
<linearGradient id="paint1_linear_142_3936" x1="12.7838" y1="2.04494" x2="22.6917" y2="8.83016" gradientUnits="userSpaceOnUse">
<stop stop-color="#00E467"/>
<stop offset="1" stop-color="#55DA49"/>
</linearGradient>
<linearGradient id="paint2_linear_142_3936" x1="3.25155" y1="7.56765" x2="10.8313" y2="12.7585" gradientUnits="userSpaceOnUse">
<stop stop-color="#00E467"/>
<stop offset="1" stop-color="#55DA49"/>
</linearGradient>
<linearGradient id="paint3_linear_142_3936" x1="24.5991" y1="7.56766" x2="32.1783" y2="12.7571" gradientUnits="userSpaceOnUse">
<stop stop-color="#00E467"/>
<stop offset="1" stop-color="#55DA49"/>
</linearGradient>
</defs>
</svg>
