<svg width="25" height="25" viewBox="0 0 25 25" fill="none" xmlns="http://www.w3.org/2000/svg">
<path d="M12.8123 12.7293C13.3681 12.2482 13.814 11.6532 14.1195 10.9846C14.425 10.316 14.5832 9.58944 14.5832 8.85433C14.5832 7.47299 14.0344 6.14823 13.0577 5.17148C12.0809 4.19473 10.7562 3.646 9.37484 3.646C7.9935 3.646 6.66874 4.19473 5.69199 5.17148C4.71524 6.14823 4.1665 7.47299 4.1665 8.85433C4.1665 9.58944 4.32463 10.316 4.63018 10.9846C4.93572 11.6532 5.38153 12.2482 5.93734 12.7293C4.47915 13.3896 3.24199 14.4559 2.37378 15.8007C1.50556 17.1455 1.04304 18.7119 1.0415 20.3127C1.0415 20.5889 1.15125 20.8539 1.3466 21.0492C1.54195 21.2446 1.8069 21.3543 2.08317 21.3543C2.35944 21.3543 2.62439 21.2446 2.81974 21.0492C3.01509 20.8539 3.12484 20.5889 3.12484 20.3127C3.12484 18.6551 3.78332 17.0653 4.95542 15.8932C6.12752 14.7211 7.71723 14.0627 9.37484 14.0627C11.0324 14.0627 12.6222 14.7211 13.7943 15.8932C14.9664 17.0653 15.6248 18.6551 15.6248 20.3127C15.6248 20.5889 15.7346 20.8539 15.9299 21.0492C16.1253 21.2446 16.3902 21.3543 16.6665 21.3543C16.9428 21.3543 17.2077 21.2446 17.4031 21.0492C17.5984 20.8539 17.7082 20.5889 17.7082 20.3127C17.7066 18.7119 17.2441 17.1455 16.3759 15.8007C15.5077 14.4559 14.2705 13.3896 12.8123 12.7293ZM9.37484 11.9793C8.75677 11.9793 8.15258 11.7961 7.63868 11.4527C7.12478 11.1093 6.72424 10.6212 6.48771 10.0502C6.25119 9.4792 6.1893 8.85086 6.30988 8.24467C6.43046 7.63848 6.72809 7.08166 7.16513 6.64462C7.60217 6.20758 8.15899 5.90995 8.76518 5.78938C9.37137 5.6688 9.9997 5.73068 10.5707 5.96721C11.1417 6.20373 11.6298 6.60427 11.9732 7.11817C12.3166 7.63208 12.4998 8.23626 12.4998 8.85433C12.4998 9.68313 12.1706 10.478 11.5845 11.064C10.9985 11.6501 10.2036 11.9793 9.37484 11.9793ZM19.5207 12.3127C20.1873 11.562 20.6228 10.6346 20.7746 9.64218C20.9265 8.64977 20.7883 7.63461 20.3767 6.71891C19.9651 5.80321 19.2975 5.02599 18.4545 4.48081C17.6115 3.93563 16.6288 3.64573 15.6248 3.646C15.3486 3.646 15.0836 3.75574 14.8883 3.95109C14.6929 4.14644 14.5832 4.4114 14.5832 4.68766C14.5832 4.96393 14.6929 5.22888 14.8883 5.42423C15.0836 5.61958 15.3486 5.72933 15.6248 5.72933C16.4536 5.72933 17.2485 6.05857 17.8345 6.64462C18.4206 7.23067 18.7498 8.02553 18.7498 8.85433C18.7484 9.40145 18.6033 9.9386 18.3291 10.4121C18.0549 10.8855 17.6612 11.2787 17.1873 11.5522C17.0329 11.6413 16.9039 11.7686 16.8127 11.9218C16.7215 12.075 16.6712 12.249 16.6665 12.4272C16.6621 12.6041 16.7029 12.7791 16.7849 12.9358C16.8669 13.0926 16.9875 13.2258 17.1353 13.3231L17.5415 13.5939L17.6769 13.6668C18.9325 14.2624 19.9918 15.2043 20.73 16.3817C21.4682 17.5592 21.8546 18.923 21.8436 20.3127C21.8436 20.5889 21.9533 20.8539 22.1487 21.0492C22.344 21.2446 22.609 21.3543 22.8853 21.3543C23.1615 21.3543 23.4265 21.2446 23.6218 21.0492C23.8172 20.8539 23.9269 20.5889 23.9269 20.3127C23.9354 18.7142 23.5351 17.14 22.7639 15.7398C21.9927 14.3396 20.8762 13.1599 19.5207 12.3127Z" fill="#F2F2F2" fill-opacity="0.5"/>
</svg>
