<svg width="35" height="26" viewBox="0 0 35 26" fill="none" xmlns="http://www.w3.org/2000/svg">
<g opacity="0.25">
<path opacity="0.25" d="M7.5214 23.4315C7.56568 22.2415 7.80315 21.0667 8.22452 19.9529C8.31087 19.7247 8.28003 19.6322 8.05799 19.5335C7.39572 19.2344 6.66005 19.1369 5.94273 19.2532C5.22542 19.3694 4.5582 19.6943 4.02432 20.1873C3.4537 20.6242 2.99938 21.1948 2.70143 21.8487C2.40348 22.5027 2.27107 23.22 2.31587 23.9372C2.32954 24.1552 2.27824 24.3724 2.16845 24.5612C2.05866 24.7501 1.89532 24.9021 1.6991 24.9981C1.53047 25.1024 1.33611 25.1576 1.13784 25.1576C0.93956 25.1576 0.745208 25.1024 0.576578 24.9981C0.413399 24.9084 0.275702 24.7787 0.176439 24.6212C0.0771773 24.4637 0.0196126 24.2835 0.00915149 24.0976C-0.0770075 22.4324 0.447534 20.793 1.48433 19.487C2.52112 18.1811 3.99888 17.2985 5.64025 17.0048C6.81002 16.813 8.01045 16.9965 9.06949 17.529C9.3162 17.6524 9.39638 17.5845 9.53207 17.3933C11.4934 14.6549 14.1517 13.187 17.5501 13.3165C18.9855 13.3563 20.3903 13.7414 21.6453 14.4393C22.9004 15.1371 23.9688 16.1271 24.7601 17.3255C24.939 17.5722 25.05 17.6154 25.3337 17.4858C27.7453 16.388 29.9471 16.8691 31.9085 18.5097C32.7229 19.1675 33.3679 20.0108 33.7896 20.969C34.2113 21.9273 34.3974 22.9725 34.3324 24.0174C34.3287 24.1673 34.2956 24.3149 34.2349 24.4519C34.1742 24.589 34.0871 24.7127 33.9785 24.8161C33.87 24.9195 33.7422 25.0005 33.6024 25.0544C33.4625 25.1084 33.3134 25.1343 33.1636 25.1307C33.0138 25.127 32.8661 25.0939 32.7291 25.0332C32.592 24.9725 32.4683 24.8854 32.3649 24.7769C32.2615 24.6683 32.1805 24.5405 32.1266 24.4007C32.0726 24.2608 32.0467 24.1117 32.0503 23.9619C32.1024 23.1677 31.9398 22.3741 31.5795 21.6643C31.2192 20.9546 30.6745 20.3549 30.0026 19.9282C29.4859 19.5381 28.8739 19.2939 28.2305 19.2212C27.5871 19.1485 26.936 19.25 26.3452 19.515C26.1355 19.6075 26.0492 19.6815 26.1478 19.9529C26.6127 21.1789 26.855 22.4781 26.8633 23.7892C26.8803 23.946 26.8651 24.1045 26.8188 24.2552C26.7724 24.4059 26.6958 24.5456 26.5936 24.6656C26.4914 24.7857 26.3658 24.8837 26.2245 24.9536C26.0832 25.0234 25.9291 25.0638 25.7716 25.0721C25.6129 25.081 25.4542 25.0563 25.3057 24.9997C25.1572 24.943 25.0224 24.8556 24.91 24.7433C24.7977 24.6309 24.7103 24.4961 24.6536 24.3476C24.597 24.1991 24.5723 24.0404 24.5812 23.8817C24.5829 22.1583 24.0929 20.4702 23.1688 19.0154C22.6428 18.1274 21.9283 17.3656 21.0757 16.7837C20.2232 16.2018 19.2534 15.8141 18.2347 15.6479C17.0719 15.4473 15.8767 15.5591 14.7714 15.972C13.666 16.3849 12.6902 17.084 11.9436 17.9978C10.6291 19.48 9.8685 21.3717 9.79112 23.3513C9.79112 23.598 9.79111 23.8509 9.74177 24.0976C9.70629 24.3783 9.56555 24.635 9.34801 24.8159C9.13048 24.9968 8.85237 25.0884 8.56991 25.0721C8.29353 25.0608 8.03093 24.9484 7.83195 24.7562C7.63298 24.5641 7.51149 24.3056 7.49056 24.0297C7.5029 23.8385 7.5214 23.635 7.5214 23.4315Z" fill="#F2F2F2"/>
<path opacity="0.25" d="M17.0378 3.68012e-06C15.9237 4.6262e-05 14.8346 0.329828 13.9076 0.947784C12.9807 1.56574 12.2573 2.44422 11.8288 3.47256C11.4002 4.50089 11.2856 5.63306 11.4994 6.72642C11.7132 7.81977 12.2458 8.82539 13.0301 9.61657C13.8144 10.4077 14.8154 10.9491 15.9068 11.1724C16.9983 11.3957 18.1314 11.2909 19.1634 10.8714C20.1955 10.4518 21.0802 9.73611 21.7062 8.81457C22.3322 7.89302 22.6715 6.80682 22.6812 5.6928C22.6885 4.94733 22.5479 4.20779 22.2675 3.51702C21.9871 2.82624 21.5725 2.19796 21.0477 1.66851C20.5228 1.13906 19.8981 0.718979 19.2098 0.432579C18.5215 0.146179 17.7833 -0.000848127 17.0378 3.68012e-06ZM17.0069 9.00486C16.3419 8.99872 15.6936 8.79543 15.1441 8.42073C14.5947 8.04603 14.1687 7.51674 13.9201 6.89986C13.6716 6.28299 13.6116 5.60625 13.7478 4.95527C13.884 4.30429 14.2102 3.70835 14.6852 3.24285C15.1602 2.77735 15.7626 2.4632 16.4162 2.34019C17.0698 2.21717 17.7452 2.29082 18.3569 2.55179C18.9687 2.81276 19.4892 3.24933 19.8528 3.80626C20.2163 4.36319 20.4064 5.01543 20.3991 5.68046C20.3951 6.1216 20.3041 6.55762 20.1314 6.96356C19.9587 7.3695 19.7076 7.7374 19.3925 8.04618C19.0774 8.35497 18.7045 8.59857 18.2952 8.76307C17.8858 8.92757 17.4481 9.00975 17.0069 9.00486V9.00486Z" fill="#F2F2F2"/>
<path opacity="0.25" d="M6.57945 5.92809C5.72761 5.89022 4.88362 6.10546 4.15393 6.54663C3.42424 6.9878 2.84153 7.63516 2.47928 8.40707C2.11704 9.17898 1.99148 10.0409 2.11844 10.8841C2.24541 11.7272 2.6192 12.5139 3.1927 13.1449C3.76619 13.776 4.5137 14.223 5.34095 14.4297C6.1682 14.6365 7.03814 14.5936 7.84106 14.3066C8.64398 14.0196 9.34393 13.5012 9.85263 12.8169C10.3613 12.1325 10.656 11.3129 10.6995 10.4613C10.7285 9.89271 10.6448 9.32397 10.4531 8.78784C10.2614 8.25172 9.96563 7.7588 9.5827 7.33746C9.19976 6.91612 8.73727 6.57468 8.22185 6.3328C7.70642 6.09093 7.14825 5.95338 6.57945 5.92809V5.92809ZM6.36358 12.3301C5.95484 12.3313 5.55499 12.2109 5.2149 11.9842C4.8748 11.7575 4.60984 11.4347 4.45373 11.0569C4.29761 10.6792 4.2574 10.2635 4.33821 9.86287C4.41902 9.46221 4.61719 9.09464 4.90752 8.80693C5.19784 8.51922 5.5672 8.32437 5.96858 8.24719C6.36997 8.17002 6.78524 8.21398 7.16157 8.37351C7.53789 8.53304 7.85824 8.80091 8.08188 9.14304C8.30551 9.48517 8.42232 9.8861 8.41742 10.2948C8.41254 10.8363 8.19401 11.354 7.80936 11.7351C7.42472 12.1163 6.9051 12.3302 6.36358 12.3301V12.3301Z" fill="#F2F2F2"/>
<path opacity="0.25" d="M27.9185 5.92772C27.0688 5.89163 26.2273 6.10732 25.4998 6.54773C24.7722 6.98813 24.1908 7.63362 23.8288 8.4032C23.4667 9.17278 23.34 10.0322 23.4645 10.8735C23.5891 11.7148 23.9593 12.5006 24.5288 13.1323C25.0984 13.7639 25.8418 14.2133 26.6657 14.424C27.4897 14.6348 28.3576 14.5974 29.1604 14.3167C29.9632 14.0359 30.6653 13.5243 31.1784 12.8461C31.6915 12.1678 31.9929 11.3531 32.0447 10.5042C32.0755 9.93248 31.993 9.36033 31.8021 8.82059C31.6112 8.28084 31.3156 7.7841 30.9322 7.3589C30.5488 6.93369 30.0852 6.58839 29.5681 6.34279C29.0509 6.09719 28.4903 5.95613 27.9185 5.92772V5.92772ZM27.7027 12.3298C27.2939 12.3298 26.8944 12.2081 26.555 11.9804C26.2156 11.7526 25.9517 11.4291 25.7967 11.0508C25.6417 10.6726 25.6028 10.2569 25.6848 9.85644C25.7668 9.45601 25.9661 9.08903 26.2573 8.8022C26.5485 8.51536 26.9184 8.32164 27.32 8.24567C27.7216 8.16971 28.1368 8.21493 28.5126 8.37559C28.8884 8.53624 29.208 8.80507 29.4306 9.14787C29.6532 9.49067 29.7688 9.89194 29.7627 10.3006C29.7514 10.8406 29.5298 11.3549 29.1451 11.7339C28.7603 12.1129 28.2427 12.3267 27.7027 12.3298V12.3298Z" fill="#F2F2F2"/>
</g>
</svg>
