<svg width="151" height="50" viewBox="0 0 151 50" fill="none" xmlns="http://www.w3.org/2000/svg">
<path d="M78.4481 10.5483V44.0304H72.5314V30.7736C70.8849 32.8875 68.4523 34.1196 65.1062 34.1196C58.9558 34.1196 53.9102 28.8403 53.9102 22.01C53.9102 15.1798 58.9558 9.90039 65.1062 9.90039C68.4523 9.90039 70.8849 11.1432 72.5314 13.2465V10.5377H78.4481V10.5483ZM72.5314 22.01C72.5314 18.1541 69.8226 15.5409 66.2003 15.5409C62.5781 15.5409 59.8269 18.1541 59.8269 22.01C59.8269 25.866 62.5356 28.4791 66.2003 28.4791C69.8651 28.4791 72.5314 25.866 72.5314 22.01Z" fill="#F2F2F2"/>
<path d="M106.067 10.5477V33.4817H100.151V30.9111C98.7696 32.9718 96.3902 34.119 93.3203 34.119C88.4552 34.119 84.6523 30.7198 84.6523 24.6225V10.5371H90.5691V23.8789C90.5691 27.0019 92.4493 28.606 95.1049 28.606C97.9942 28.606 100.151 26.9064 100.151 22.923V10.5371H106.067V10.5477Z" fill="#F2F2F2"/>
<path d="M111.57 4.17453C111.57 2.19875 113.217 0.509766 115.193 0.509766C117.168 0.509766 118.857 2.20937 118.857 4.17453C118.857 6.13969 117.211 7.79683 115.193 7.79683C113.174 7.79683 111.57 6.15031 111.57 4.17453ZM112.261 10.548H118.177V33.482H112.261V10.548Z" fill="#F2F2F2"/>
<path d="M124.367 0H130.284V33.4821H124.367V0Z" fill="#F2F2F2"/>
<path d="M144.84 16.2415V25.7806C144.84 28.2556 146.625 28.2981 150.024 28.1175V33.4818C141.717 34.3954 138.924 31.9735 138.924 25.7806V16.2415H134.93V10.5585H138.924V5.92715L144.84 4.14258V10.5585H150.024V16.2415H144.84Z" fill="#F2F2F2"/>
<path d="M146.931 37.8379H87.7318C86.0246 37.8379 84.6406 39.2219 84.6406 40.9291V40.9396C84.6406 42.6468 86.0246 44.0308 87.7318 44.0308H146.931C148.638 44.0308 150.022 42.6468 150.022 40.9396V40.9291C150.022 39.2219 148.638 37.8379 146.931 37.8379Z" fill="#00E467"/>
<path d="M25.3974 49.4696C25.0893 49.4696 24.8025 49.3527 24.5794 49.1297L18.0785 42.6287H4.88535C2.47405 42.6287 0.519531 40.6742 0.519531 38.2629V20.5446C0.519531 19.9072 1.04003 19.3867 1.67738 19.3867H19.4063C23.3472 19.3867 26.5552 22.5947 26.5552 26.5356V48.3117C26.5552 48.641 26.4277 48.9385 26.194 49.1509C25.9816 49.3527 25.6842 49.4696 25.3974 49.4696Z" fill="#212121"/>
<path d="M19.4073 19.8967C23.072 19.8967 26.0463 22.871 26.0463 26.5357V48.3118C26.0463 48.6942 25.7276 48.9598 25.3983 48.9598C25.239 48.9598 25.0797 48.8961 24.9522 48.7686L18.3025 42.1189H4.89695C2.77245 42.1189 1.04098 40.3981 1.04098 38.263V20.5447C1.04098 20.1941 1.3278 19.9073 1.67834 19.9073H19.4073V19.8967ZM19.4073 18.877H1.67834C0.754181 18.877 0 19.6312 0 20.5553V38.2736C0 40.9717 2.1882 43.1599 4.88631 43.1599H17.867L24.2192 49.5121C24.5379 49.8308 24.9522 50.0008 25.3983 50.0008C26.3225 50.0008 27.0767 49.2466 27.0767 48.3224V26.5463C27.0767 22.3186 23.635 18.877 19.4073 18.877Z" fill="#00E467"/>
<path d="M32.6239 42.2352C32.3159 42.2352 32.0291 42.1183 31.806 41.8953L25.305 35.3943H12.1119C9.70065 35.3943 7.74609 33.4398 7.74609 31.0285V13.3102C7.74609 12.6729 8.26659 12.1523 8.90394 12.1523H26.6329C30.5738 12.1523 33.7818 15.3603 33.7818 19.3012V41.0773C33.7818 41.4066 33.6543 41.7041 33.4206 41.9165C33.2082 42.1184 32.9108 42.2352 32.6239 42.2352Z" fill="#212121"/>
<path d="M26.6416 12.6721C30.3064 12.6721 33.2807 15.6464 33.2807 19.3111V41.0872C33.2807 41.4696 32.962 41.7351 32.6327 41.7351C32.4733 41.7351 32.314 41.6714 32.1866 41.5439L25.5369 34.8943H12.1313C10.0068 34.8943 8.27536 33.1735 8.27536 31.0384V13.32C8.27536 12.9695 8.56217 12.6827 8.91271 12.6827H26.6416V12.6721ZM26.6416 11.6523H8.91271C7.98856 11.6523 7.23438 12.4065 7.23438 13.3306V31.0489C7.23438 33.747 9.42258 35.9353 12.1207 35.9353H25.1014L31.4536 42.2875C31.7723 42.6062 32.1865 42.7762 32.6327 42.7762C33.5568 42.7762 34.3111 42.022 34.3111 41.0978V19.3217C34.3111 15.094 30.8694 11.6523 26.6416 11.6523Z" fill="#00E467"/>
<path d="M39.8466 35.0223C39.5385 35.0223 39.2517 34.9055 39.0287 34.6824L32.5277 28.1814H19.3346C16.9233 28.1814 14.9688 26.2268 14.9688 23.8155V6.09727C14.9688 5.45992 15.4892 4.93945 16.1266 4.93945H33.8555C37.7964 4.93945 41.0044 8.14742 41.0044 12.0884V33.8644C41.0044 34.1937 40.8769 34.4911 40.6433 34.7036C40.4308 34.9054 40.1334 35.0223 39.8466 35.0223Z" fill="#212121"/>
<path d="M33.8643 5.44947C37.529 5.44947 40.5033 8.42376 40.5033 12.0885V33.8646C40.5033 34.247 40.1847 34.5125 39.8554 34.5125C39.696 34.5125 39.5367 34.4488 39.4092 34.3213L32.7596 27.6717H19.354C17.2295 27.6717 15.498 25.9508 15.498 23.8157V6.09742C15.498 5.74688 15.7848 5.4601 16.1354 5.4601H33.8643V5.44947ZM33.8643 4.42969H16.1354C15.2112 4.42969 14.457 5.1839 14.457 6.10806V23.8263C14.457 26.5244 16.6453 28.7127 19.3434 28.7127H32.324L38.6763 35.0649C38.9949 35.3836 39.4092 35.5536 39.8554 35.5536C40.7795 35.5536 41.5337 34.7994 41.5337 33.8752V12.0991C41.5337 7.8714 38.092 4.42969 33.8643 4.42969Z" fill="#00E467"/>
</svg>
