<svg width="35" height="35" viewBox="0 0 35 35" fill="none" xmlns="http://www.w3.org/2000/svg">
<g opacity="0.5">
<path opacity="0.5" d="M29.0895 0.662109H6.21355C5.46272 0.662109 4.71925 0.809999 4.02557 1.09733C3.3319 1.38466 2.70161 1.8058 2.1707 2.33671C1.63978 2.86762 1.21864 3.49791 0.931308 4.19158C0.643979 4.88525 0.496094 5.62873 0.496094 6.37956V23.5381C0.496094 25.0544 1.09847 26.5087 2.1707 27.5809C3.24293 28.6531 4.69719 29.2555 6.21355 29.2555H10.3644L16.7233 34.6337C16.9823 34.8517 17.3099 34.9712 17.6484 34.9712C17.9869 34.9712 18.3146 34.8517 18.5736 34.6337L24.9448 29.2555H29.0895C30.6065 29.2555 32.0613 28.6533 33.1346 27.5813C34.2078 26.5092 34.8115 25.055 34.8131 23.5381V6.37956C34.8115 4.86263 34.2078 3.40839 33.1346 2.33633C32.0613 1.26428 30.6065 0.662108 29.0895 0.662109ZM31.9513 23.5381C31.9513 23.9136 31.8773 24.2854 31.7334 24.6323C31.5895 24.9792 31.3786 25.2942 31.1128 25.5595C30.8469 25.8247 30.5314 26.035 30.1842 26.1781C29.837 26.3213 29.465 26.3945 29.0895 26.3937H24.9448C24.2668 26.3915 23.6104 26.6322 23.0945 27.0722L17.6484 31.6733L12.2024 27.0722C11.6859 26.6331 11.0299 26.3926 10.3521 26.3937H6.21355C5.45618 26.3937 4.72984 26.0928 4.1943 25.5573C3.65876 25.0218 3.3579 24.2954 3.3579 23.5381V6.37956C3.35709 6.00403 3.43036 5.63203 3.5735 5.28486C3.71665 4.93768 3.92687 4.62215 4.19212 4.35632C4.45737 4.0905 4.77245 3.87961 5.11931 3.73571C5.46618 3.59182 5.83802 3.51775 6.21355 3.51775H29.0895C29.8485 3.51775 30.5764 3.81926 31.1131 4.35596C31.6498 4.89265 31.9513 5.62056 31.9513 6.37956V23.5381Z" fill="#F2F2F2" fill-opacity="0.25"/>
<path opacity="0.5" d="M10.642 10.6654H17.7903C17.9857 10.6782 18.1817 10.6508 18.3661 10.5849C18.5505 10.5189 18.7193 10.4158 18.8623 10.282C19.0052 10.1482 19.1192 9.98641 19.197 9.80675C19.2749 9.62709 19.3151 9.43335 19.3151 9.23754C19.3151 9.04172 19.2749 8.84799 19.197 8.66834C19.1192 8.48868 19.0052 8.32692 18.8623 8.19308C18.7193 8.05923 18.5505 7.95615 18.3661 7.89021C18.1817 7.82427 17.9857 7.79688 17.7903 7.80972H10.642C10.4466 7.79688 10.2506 7.82427 10.0663 7.89021C9.88187 7.95615 9.71298 8.05923 9.57005 8.19308C9.42711 8.32692 9.31317 8.48868 9.23527 8.66834C9.15738 8.84799 9.11719 9.04172 9.11719 9.23754C9.11719 9.43335 9.15738 9.62709 9.23527 9.80675C9.31317 9.98641 9.42711 10.1482 9.57005 10.282C9.71298 10.4158 9.88187 10.5189 10.0663 10.5849C10.2506 10.6508 10.4466 10.6782 10.642 10.6654Z" fill="#F2F2F2" fill-opacity="0.25"/>
<path opacity="0.5" d="M24.8018 13.5273H10.5051C10.1256 13.5273 9.76167 13.6781 9.49332 13.9465C9.22497 14.2148 9.07422 14.5788 9.07422 14.9583C9.07422 15.3378 9.22497 15.7017 9.49332 15.9701C9.76167 16.2384 10.1256 16.3892 10.5051 16.3892H24.8018C25.1813 16.3892 25.5453 16.2384 25.8136 15.9701C26.082 15.7017 26.2327 15.3378 26.2327 14.9583C26.2327 14.5788 26.082 14.2148 25.8136 13.9465C25.5453 13.6781 25.1813 13.5273 24.8018 13.5273Z" fill="#F2F2F2" fill-opacity="0.25"/>
<path opacity="0.5" d="M24.8018 19.2461H10.5051C10.1256 19.2461 9.76167 19.3968 9.49332 19.6652C9.22497 19.9335 9.07422 20.2975 9.07422 20.677C9.07422 21.0565 9.22497 21.4204 9.49332 21.6888C9.76167 21.9571 10.1256 22.1079 10.5051 22.1079H24.8018C25.1813 22.1079 25.5453 21.9571 25.8136 21.6888C26.082 21.4204 26.2327 21.0565 26.2327 20.677C26.2327 20.2975 26.082 19.9335 25.8136 19.6652C25.5453 19.3968 25.1813 19.2461 24.8018 19.2461Z" fill="#F2F2F2" fill-opacity="0.25"/>
</g>
<g opacity="0.5">
<path opacity="0.5" d="M29.0895 0.662109H6.21355C5.46272 0.662109 4.71925 0.809999 4.02557 1.09733C3.3319 1.38466 2.70161 1.8058 2.1707 2.33671C1.63978 2.86762 1.21864 3.49791 0.931308 4.19158C0.643979 4.88525 0.496094 5.62873 0.496094 6.37956V23.5381C0.496094 25.0544 1.09847 26.5087 2.1707 27.5809C3.24293 28.6531 4.69719 29.2555 6.21355 29.2555H10.3644L16.7233 34.6337C16.9823 34.8517 17.3099 34.9712 17.6484 34.9712C17.9869 34.9712 18.3146 34.8517 18.5736 34.6337L24.9448 29.2555H29.0895C30.6065 29.2555 32.0613 28.6533 33.1346 27.5813C34.2078 26.5092 34.8115 25.055 34.8131 23.5381V6.37956C34.8115 4.86263 34.2078 3.40839 33.1346 2.33633C32.0613 1.26428 30.6065 0.662108 29.0895 0.662109ZM31.9513 23.5381C31.9513 23.9136 31.8773 24.2854 31.7334 24.6323C31.5895 24.9792 31.3786 25.2942 31.1128 25.5595C30.8469 25.8247 30.5314 26.035 30.1842 26.1781C29.837 26.3213 29.465 26.3945 29.0895 26.3937H24.9448C24.2668 26.3915 23.6104 26.6322 23.0945 27.0722L17.6484 31.6733L12.2024 27.0722C11.6859 26.6331 11.0299 26.3926 10.3521 26.3937H6.21355C5.45618 26.3937 4.72984 26.0928 4.1943 25.5573C3.65876 25.0218 3.3579 24.2954 3.3579 23.5381V6.37956C3.35709 6.00403 3.43036 5.63203 3.5735 5.28486C3.71665 4.93768 3.92687 4.62215 4.19212 4.35632C4.45737 4.0905 4.77245 3.87961 5.11931 3.73571C5.46618 3.59182 5.83802 3.51775 6.21355 3.51775H29.0895C29.8485 3.51775 30.5764 3.81926 31.1131 4.35596C31.6498 4.89265 31.9513 5.62056 31.9513 6.37956V23.5381Z" fill="#F2F2F2" fill-opacity="0.25"/>
<path opacity="0.5" d="M10.642 10.6654H17.7903C17.9857 10.6782 18.1817 10.6508 18.3661 10.5849C18.5505 10.5189 18.7193 10.4158 18.8623 10.282C19.0052 10.1482 19.1192 9.98641 19.197 9.80675C19.2749 9.62709 19.3151 9.43335 19.3151 9.23754C19.3151 9.04172 19.2749 8.84799 19.197 8.66834C19.1192 8.48868 19.0052 8.32692 18.8623 8.19308C18.7193 8.05923 18.5505 7.95615 18.3661 7.89021C18.1817 7.82427 17.9857 7.79688 17.7903 7.80972H10.642C10.4466 7.79688 10.2506 7.82427 10.0663 7.89021C9.88187 7.95615 9.71298 8.05923 9.57005 8.19308C9.42711 8.32692 9.31317 8.48868 9.23527 8.66834C9.15738 8.84799 9.11719 9.04172 9.11719 9.23754C9.11719 9.43335 9.15738 9.62709 9.23527 9.80675C9.31317 9.98641 9.42711 10.1482 9.57005 10.282C9.71298 10.4158 9.88187 10.5189 10.0663 10.5849C10.2506 10.6508 10.4466 10.6782 10.642 10.6654Z" fill="#F2F2F2" fill-opacity="0.25"/>
<path opacity="0.5" d="M24.8018 13.5273H10.5051C10.1256 13.5273 9.76167 13.6781 9.49332 13.9465C9.22497 14.2148 9.07422 14.5788 9.07422 14.9583C9.07422 15.3378 9.22497 15.7017 9.49332 15.9701C9.76167 16.2384 10.1256 16.3892 10.5051 16.3892H24.8018C25.1813 16.3892 25.5453 16.2384 25.8136 15.9701C26.082 15.7017 26.2327 15.3378 26.2327 14.9583C26.2327 14.5788 26.082 14.2148 25.8136 13.9465C25.5453 13.6781 25.1813 13.5273 24.8018 13.5273Z" fill="#F2F2F2" fill-opacity="0.25"/>
<path opacity="0.5" d="M24.8018 19.2461H10.5051C10.1256 19.2461 9.76167 19.3968 9.49332 19.6652C9.22497 19.9335 9.07422 20.2975 9.07422 20.677C9.07422 21.0565 9.22497 21.4204 9.49332 21.6888C9.76167 21.9571 10.1256 22.1079 10.5051 22.1079H24.8018C25.1813 22.1079 25.5453 21.9571 25.8136 21.6888C26.082 21.4204 26.2327 21.0565 26.2327 20.677C26.2327 20.2975 26.082 19.9335 25.8136 19.6652C25.5453 19.3968 25.1813 19.2461 24.8018 19.2461Z" fill="#F2F2F2" fill-opacity="0.25"/>
</g>
<g opacity="0.5">
<path opacity="0.5" d="M29.0895 0.662109H6.21355C5.46272 0.662109 4.71925 0.809999 4.02557 1.09733C3.3319 1.38466 2.70161 1.8058 2.1707 2.33671C1.63978 2.86762 1.21864 3.49791 0.931308 4.19158C0.643979 4.88525 0.496094 5.62873 0.496094 6.37956V23.5381C0.496094 25.0544 1.09847 26.5087 2.1707 27.5809C3.24293 28.6531 4.69719 29.2555 6.21355 29.2555H10.3644L16.7233 34.6337C16.9823 34.8517 17.3099 34.9712 17.6484 34.9712C17.9869 34.9712 18.3146 34.8517 18.5736 34.6337L24.9448 29.2555H29.0895C30.6065 29.2555 32.0613 28.6533 33.1346 27.5813C34.2078 26.5092 34.8115 25.055 34.8131 23.5381V6.37956C34.8115 4.86263 34.2078 3.40839 33.1346 2.33633C32.0613 1.26428 30.6065 0.662108 29.0895 0.662109ZM31.9513 23.5381C31.9513 23.9136 31.8773 24.2854 31.7334 24.6323C31.5895 24.9792 31.3786 25.2942 31.1128 25.5595C30.8469 25.8247 30.5314 26.035 30.1842 26.1781C29.837 26.3213 29.465 26.3945 29.0895 26.3937H24.9448C24.2668 26.3915 23.6104 26.6322 23.0945 27.0722L17.6484 31.6733L12.2024 27.0722C11.6859 26.6331 11.0299 26.3926 10.3521 26.3937H6.21355C5.45618 26.3937 4.72984 26.0928 4.1943 25.5573C3.65876 25.0218 3.3579 24.2954 3.3579 23.5381V6.37956C3.35709 6.00403 3.43036 5.63203 3.5735 5.28486C3.71665 4.93768 3.92687 4.62215 4.19212 4.35632C4.45737 4.0905 4.77245 3.87961 5.11931 3.73571C5.46618 3.59182 5.83802 3.51775 6.21355 3.51775H29.0895C29.8485 3.51775 30.5764 3.81926 31.1131 4.35596C31.6498 4.89265 31.9513 5.62056 31.9513 6.37956V23.5381Z" fill="#F2F2F2" fill-opacity="0.25"/>
<path opacity="0.5" d="M10.642 10.6654H17.7903C17.9857 10.6782 18.1817 10.6508 18.3661 10.5849C18.5505 10.5189 18.7193 10.4158 18.8623 10.282C19.0052 10.1482 19.1192 9.98641 19.197 9.80675C19.2749 9.62709 19.3151 9.43335 19.3151 9.23754C19.3151 9.04172 19.2749 8.84799 19.197 8.66834C19.1192 8.48868 19.0052 8.32692 18.8623 8.19308C18.7193 8.05923 18.5505 7.95615 18.3661 7.89021C18.1817 7.82427 17.9857 7.79688 17.7903 7.80972H10.642C10.4466 7.79688 10.2506 7.82427 10.0663 7.89021C9.88187 7.95615 9.71298 8.05923 9.57005 8.19308C9.42711 8.32692 9.31317 8.48868 9.23527 8.66834C9.15738 8.84799 9.11719 9.04172 9.11719 9.23754C9.11719 9.43335 9.15738 9.62709 9.23527 9.80675C9.31317 9.98641 9.42711 10.1482 9.57005 10.282C9.71298 10.4158 9.88187 10.5189 10.0663 10.5849C10.2506 10.6508 10.4466 10.6782 10.642 10.6654Z" fill="#F2F2F2" fill-opacity="0.25"/>
<path opacity="0.5" d="M24.8018 13.5273H10.5051C10.1256 13.5273 9.76167 13.6781 9.49332 13.9465C9.22497 14.2148 9.07422 14.5788 9.07422 14.9583C9.07422 15.3378 9.22497 15.7017 9.49332 15.9701C9.76167 16.2384 10.1256 16.3892 10.5051 16.3892H24.8018C25.1813 16.3892 25.5453 16.2384 25.8136 15.9701C26.082 15.7017 26.2327 15.3378 26.2327 14.9583C26.2327 14.5788 26.082 14.2148 25.8136 13.9465C25.5453 13.6781 25.1813 13.5273 24.8018 13.5273Z" fill="#F2F2F2" fill-opacity="0.25"/>
<path opacity="0.5" d="M24.8018 19.2461H10.5051C10.1256 19.2461 9.76167 19.3968 9.49332 19.6652C9.22497 19.9335 9.07422 20.2975 9.07422 20.677C9.07422 21.0565 9.22497 21.4204 9.49332 21.6888C9.76167 21.9571 10.1256 22.1079 10.5051 22.1079H24.8018C25.1813 22.1079 25.5453 21.9571 25.8136 21.6888C26.082 21.4204 26.2327 21.0565 26.2327 20.677C26.2327 20.2975 26.082 19.9335 25.8136 19.6652C25.5453 19.3968 25.1813 19.2461 24.8018 19.2461Z" fill="#F2F2F2" fill-opacity="0.25"/>
</g>
</svg>
