<svg width="35" height="35" viewBox="0 0 35 35" fill="none" xmlns="http://www.w3.org/2000/svg">
<g opacity="0.5">
<path opacity="0.5" d="M28.5934 0H5.71745C4.96663 0 4.22315 0.14789 3.52948 0.435219C2.83581 0.722547 2.20552 1.14369 1.6746 1.6746C1.14369 2.20551 0.722543 2.8358 0.435214 3.52947C0.147885 4.22315 0 4.96662 0 5.71745V22.876C0 24.3923 0.602372 25.8466 1.6746 26.9188C2.74683 27.991 4.20109 28.5934 5.71745 28.5934H9.86831L16.2272 33.9716C16.4862 34.1896 16.8139 34.309 17.1524 34.309C17.4909 34.309 17.8185 34.1896 18.0775 33.9716L24.4487 28.5934H28.5934C30.1104 28.5934 31.5653 27.9912 32.6385 26.9192C33.7117 25.8471 34.3154 24.3929 34.317 22.876V5.71745C34.3154 4.20052 33.7117 2.74628 32.6385 1.67422C31.5653 0.602172 30.1104 -8.80722e-07 28.5934 0ZM31.4552 22.876C31.4552 23.2515 31.3812 23.6233 31.2373 23.9702C31.0934 24.3171 30.8825 24.6321 30.6167 24.8974C30.3508 25.1626 30.0353 25.3729 29.6881 25.516C29.341 25.6591 28.969 25.7324 28.5934 25.7316H24.4487C23.7707 25.7294 23.1143 25.9701 22.5984 26.4101L17.1524 31.0111L11.7063 26.4101C11.1898 25.971 10.5338 25.7305 9.85598 25.7316H5.71745C4.96009 25.7316 4.23374 25.4307 3.69821 24.8952C3.16267 24.3597 2.86181 23.6333 2.86181 22.876V5.71745C2.861 5.34192 2.93426 4.96992 3.07741 4.62275C3.22056 4.27557 3.43077 3.96004 3.69602 3.69421C3.96128 3.42839 4.27635 3.2175 4.62322 3.07361C4.97009 2.92971 5.34193 2.85564 5.71745 2.85564H28.5934C29.3524 2.85564 30.0803 3.15715 30.617 3.69385C31.1537 4.23054 31.4552 4.95845 31.4552 5.71745V22.876Z" fill="#00E467"/>
<path opacity="0.5" d="M10.1459 10.0032H17.2942C17.4896 10.0161 17.6856 9.9887 17.87 9.92276C18.0544 9.85682 18.2232 9.75373 18.3662 9.61989C18.5091 9.48605 18.6231 9.3243 18.701 9.14464C18.7789 8.96498 18.819 8.77125 18.819 8.57543C18.819 8.37961 18.7789 8.18588 18.701 8.00623C18.6231 7.82657 18.5091 7.66481 18.3662 7.53097C18.2232 7.39712 18.0544 7.29404 17.87 7.2281C17.6856 7.16216 17.4896 7.13477 17.2942 7.14762H10.1459C9.9505 7.13477 9.75454 7.16216 9.57016 7.2281C9.38577 7.29404 9.21689 7.39712 9.07395 7.53097C8.93102 7.66481 8.81708 7.82657 8.73918 8.00623C8.66128 8.18588 8.62109 8.37961 8.62109 8.57543C8.62109 8.77125 8.66128 8.96498 8.73918 9.14464C8.81708 9.3243 8.93102 9.48605 9.07395 9.61989C9.21689 9.75373 9.38577 9.85682 9.57016 9.92276C9.75454 9.9887 9.9505 10.0161 10.1459 10.0032Z" fill="#00E467"/>
<path opacity="0.5" d="M24.3057 12.8652H10.009C9.62953 12.8652 9.26557 13.016 8.99723 13.2843C8.72888 13.5527 8.57812 13.9166 8.57812 14.2961C8.57812 14.6756 8.72888 15.0396 8.99723 15.308C9.26557 15.5763 9.62953 15.7271 10.009 15.7271H24.3057C24.6852 15.7271 25.0492 15.5763 25.3175 15.308C25.5859 15.0396 25.7366 14.6756 25.7366 14.2961C25.7366 13.9166 25.5859 13.5527 25.3175 13.2843C25.0492 13.016 24.6852 12.8652 24.3057 12.8652Z" fill="#00E467"/>
<path opacity="0.5" d="M24.3057 18.584H10.009C9.62953 18.584 9.26557 18.7347 8.99723 19.0031C8.72888 19.2714 8.57812 19.6354 8.57812 20.0149C8.57812 20.3944 8.72888 20.7583 8.99723 21.0267C9.26557 21.295 9.62953 21.4458 10.009 21.4458H24.3057C24.6852 21.4458 25.0492 21.295 25.3175 21.0267C25.5859 20.7583 25.7366 20.3944 25.7366 20.0149C25.7366 19.6354 25.5859 19.2714 25.3175 19.0031C25.0492 18.7347 24.6852 18.584 24.3057 18.584Z" fill="#00E467"/>
</g>
<g opacity="0.5">
<path opacity="0.5" d="M28.5934 0H5.71745C4.96663 0 4.22315 0.14789 3.52948 0.435219C2.83581 0.722547 2.20552 1.14369 1.6746 1.6746C1.14369 2.20551 0.722543 2.8358 0.435214 3.52947C0.147885 4.22315 0 4.96662 0 5.71745V22.876C0 24.3923 0.602372 25.8466 1.6746 26.9188C2.74683 27.991 4.20109 28.5934 5.71745 28.5934H9.86831L16.2272 33.9716C16.4862 34.1896 16.8139 34.309 17.1524 34.309C17.4909 34.309 17.8185 34.1896 18.0775 33.9716L24.4487 28.5934H28.5934C30.1104 28.5934 31.5653 27.9912 32.6385 26.9192C33.7117 25.8471 34.3154 24.3929 34.317 22.876V5.71745C34.3154 4.20052 33.7117 2.74628 32.6385 1.67422C31.5653 0.602172 30.1104 -8.80722e-07 28.5934 0ZM31.4552 22.876C31.4552 23.2515 31.3812 23.6233 31.2373 23.9702C31.0934 24.3171 30.8825 24.6321 30.6167 24.8974C30.3508 25.1626 30.0353 25.3729 29.6881 25.516C29.341 25.6591 28.969 25.7324 28.5934 25.7316H24.4487C23.7707 25.7294 23.1143 25.9701 22.5984 26.4101L17.1524 31.0111L11.7063 26.4101C11.1898 25.971 10.5338 25.7305 9.85598 25.7316H5.71745C4.96009 25.7316 4.23374 25.4307 3.69821 24.8952C3.16267 24.3597 2.86181 23.6333 2.86181 22.876V5.71745C2.861 5.34192 2.93426 4.96992 3.07741 4.62275C3.22056 4.27557 3.43077 3.96004 3.69602 3.69421C3.96128 3.42839 4.27635 3.2175 4.62322 3.07361C4.97009 2.92971 5.34193 2.85564 5.71745 2.85564H28.5934C29.3524 2.85564 30.0803 3.15715 30.617 3.69385C31.1537 4.23054 31.4552 4.95845 31.4552 5.71745V22.876Z" fill="#00E467"/>
<path opacity="0.5" d="M10.1459 10.0032H17.2942C17.4896 10.0161 17.6856 9.9887 17.87 9.92276C18.0544 9.85682 18.2232 9.75373 18.3662 9.61989C18.5091 9.48605 18.6231 9.3243 18.701 9.14464C18.7789 8.96498 18.819 8.77125 18.819 8.57543C18.819 8.37961 18.7789 8.18588 18.701 8.00623C18.6231 7.82657 18.5091 7.66481 18.3662 7.53097C18.2232 7.39712 18.0544 7.29404 17.87 7.2281C17.6856 7.16216 17.4896 7.13477 17.2942 7.14762H10.1459C9.9505 7.13477 9.75454 7.16216 9.57016 7.2281C9.38577 7.29404 9.21689 7.39712 9.07395 7.53097C8.93102 7.66481 8.81708 7.82657 8.73918 8.00623C8.66128 8.18588 8.62109 8.37961 8.62109 8.57543C8.62109 8.77125 8.66128 8.96498 8.73918 9.14464C8.81708 9.3243 8.93102 9.48605 9.07395 9.61989C9.21689 9.75373 9.38577 9.85682 9.57016 9.92276C9.75454 9.9887 9.9505 10.0161 10.1459 10.0032Z" fill="#00E467"/>
<path opacity="0.5" d="M24.3057 12.8652H10.009C9.62953 12.8652 9.26557 13.016 8.99723 13.2843C8.72888 13.5527 8.57812 13.9166 8.57812 14.2961C8.57812 14.6756 8.72888 15.0396 8.99723 15.308C9.26557 15.5763 9.62953 15.7271 10.009 15.7271H24.3057C24.6852 15.7271 25.0492 15.5763 25.3175 15.308C25.5859 15.0396 25.7366 14.6756 25.7366 14.2961C25.7366 13.9166 25.5859 13.5527 25.3175 13.2843C25.0492 13.016 24.6852 12.8652 24.3057 12.8652Z" fill="#00E467"/>
<path opacity="0.5" d="M24.3057 18.584H10.009C9.62953 18.584 9.26557 18.7347 8.99723 19.0031C8.72888 19.2714 8.57812 19.6354 8.57812 20.0149C8.57812 20.3944 8.72888 20.7583 8.99723 21.0267C9.26557 21.295 9.62953 21.4458 10.009 21.4458H24.3057C24.6852 21.4458 25.0492 21.295 25.3175 21.0267C25.5859 20.7583 25.7366 20.3944 25.7366 20.0149C25.7366 19.6354 25.5859 19.2714 25.3175 19.0031C25.0492 18.7347 24.6852 18.584 24.3057 18.584Z" fill="#00E467"/>
</g>
<g opacity="0.5">
<path opacity="0.5" d="M28.5934 0H5.71745C4.96663 0 4.22315 0.14789 3.52948 0.435219C2.83581 0.722547 2.20552 1.14369 1.6746 1.6746C1.14369 2.20551 0.722543 2.8358 0.435214 3.52947C0.147885 4.22315 0 4.96662 0 5.71745V22.876C0 24.3923 0.602372 25.8466 1.6746 26.9188C2.74683 27.991 4.20109 28.5934 5.71745 28.5934H9.86831L16.2272 33.9716C16.4862 34.1896 16.8139 34.309 17.1524 34.309C17.4909 34.309 17.8185 34.1896 18.0775 33.9716L24.4487 28.5934H28.5934C30.1104 28.5934 31.5653 27.9912 32.6385 26.9192C33.7117 25.8471 34.3154 24.3929 34.317 22.876V5.71745C34.3154 4.20052 33.7117 2.74628 32.6385 1.67422C31.5653 0.602172 30.1104 -8.80722e-07 28.5934 0ZM31.4552 22.876C31.4552 23.2515 31.3812 23.6233 31.2373 23.9702C31.0934 24.3171 30.8825 24.6321 30.6167 24.8974C30.3508 25.1626 30.0353 25.3729 29.6881 25.516C29.341 25.6591 28.969 25.7324 28.5934 25.7316H24.4487C23.7707 25.7294 23.1143 25.9701 22.5984 26.4101L17.1524 31.0111L11.7063 26.4101C11.1898 25.971 10.5338 25.7305 9.85598 25.7316H5.71745C4.96009 25.7316 4.23374 25.4307 3.69821 24.8952C3.16267 24.3597 2.86181 23.6333 2.86181 22.876V5.71745C2.861 5.34192 2.93426 4.96992 3.07741 4.62275C3.22056 4.27557 3.43077 3.96004 3.69602 3.69421C3.96128 3.42839 4.27635 3.2175 4.62322 3.07361C4.97009 2.92971 5.34193 2.85564 5.71745 2.85564H28.5934C29.3524 2.85564 30.0803 3.15715 30.617 3.69385C31.1537 4.23054 31.4552 4.95845 31.4552 5.71745V22.876Z" fill="#00E467"/>
<path opacity="0.5" d="M10.1459 10.0032H17.2942C17.4896 10.0161 17.6856 9.9887 17.87 9.92276C18.0544 9.85682 18.2232 9.75373 18.3662 9.61989C18.5091 9.48605 18.6231 9.3243 18.701 9.14464C18.7789 8.96498 18.819 8.77125 18.819 8.57543C18.819 8.37961 18.7789 8.18588 18.701 8.00623C18.6231 7.82657 18.5091 7.66481 18.3662 7.53097C18.2232 7.39712 18.0544 7.29404 17.87 7.2281C17.6856 7.16216 17.4896 7.13477 17.2942 7.14762H10.1459C9.9505 7.13477 9.75454 7.16216 9.57016 7.2281C9.38577 7.29404 9.21689 7.39712 9.07395 7.53097C8.93102 7.66481 8.81708 7.82657 8.73918 8.00623C8.66128 8.18588 8.62109 8.37961 8.62109 8.57543C8.62109 8.77125 8.66128 8.96498 8.73918 9.14464C8.81708 9.3243 8.93102 9.48605 9.07395 9.61989C9.21689 9.75373 9.38577 9.85682 9.57016 9.92276C9.75454 9.9887 9.9505 10.0161 10.1459 10.0032Z" fill="#00E467"/>
<path opacity="0.5" d="M24.3057 12.8652H10.009C9.62953 12.8652 9.26557 13.016 8.99723 13.2843C8.72888 13.5527 8.57812 13.9166 8.57812 14.2961C8.57812 14.6756 8.72888 15.0396 8.99723 15.308C9.26557 15.5763 9.62953 15.7271 10.009 15.7271H24.3057C24.6852 15.7271 25.0492 15.5763 25.3175 15.308C25.5859 15.0396 25.7366 14.6756 25.7366 14.2961C25.7366 13.9166 25.5859 13.5527 25.3175 13.2843C25.0492 13.016 24.6852 12.8652 24.3057 12.8652Z" fill="#00E467"/>
<path opacity="0.5" d="M24.3057 18.584H10.009C9.62953 18.584 9.26557 18.7347 8.99723 19.0031C8.72888 19.2714 8.57812 19.6354 8.57812 20.0149C8.57812 20.3944 8.72888 20.7583 8.99723 21.0267C9.26557 21.295 9.62953 21.4458 10.009 21.4458H24.3057C24.6852 21.4458 25.0492 21.295 25.3175 21.0267C25.5859 20.7583 25.7366 20.3944 25.7366 20.0149C25.7366 19.6354 25.5859 19.2714 25.3175 19.0031C25.0492 18.7347 24.6852 18.584 24.3057 18.584Z" fill="#00E467"/>
</g>
</svg>
