<svg width="25" height="25" viewBox="0 0 25 25" fill="none" xmlns="http://www.w3.org/2000/svg">
<path d="M13.5418 11.4585H7.29183C7.01556 11.4585 6.75061 11.5682 6.55526 11.7636C6.35991 11.9589 6.25016 12.2239 6.25016 12.5002C6.25016 12.7764 6.35991 13.0414 6.55526 13.2367C6.75061 13.4321 7.01556 13.5418 7.29183 13.5418H13.5418C13.8181 13.5418 14.083 13.4321 14.2784 13.2367C14.4738 13.0414 14.5835 12.7764 14.5835 12.5002C14.5835 12.2239 14.4738 11.9589 14.2784 11.7636C14.083 11.5682 13.8181 11.4585 13.5418 11.4585ZM17.7085 7.29183H7.29183C7.01556 7.29183 6.75061 7.40158 6.55526 7.59693C6.35991 7.79228 6.25016 8.05723 6.25016 8.3335C6.25016 8.60976 6.35991 8.87471 6.55526 9.07007C6.75061 9.26542 7.01556 9.37516 7.29183 9.37516H17.7085C17.9848 9.37516 18.2497 9.26542 18.4451 9.07007C18.6404 8.87471 18.7502 8.60976 18.7502 8.3335C18.7502 8.05723 18.6404 7.79228 18.4451 7.59693C18.2497 7.40158 17.9848 7.29183 17.7085 7.29183ZM19.7918 2.0835H5.2085C4.37969 2.0835 3.58484 2.41274 2.99879 2.99879C2.41274 3.58484 2.0835 4.37969 2.0835 5.2085V15.6252C2.0835 16.454 2.41274 17.2488 2.99879 17.8349C3.58484 18.4209 4.37969 18.7502 5.2085 18.7502H17.2814L21.1356 22.6147C21.2329 22.7113 21.3483 22.7877 21.4753 22.8395C21.6022 22.8913 21.7381 22.9176 21.8752 22.9168C22.0118 22.9203 22.1474 22.8918 22.271 22.8335C22.4612 22.7553 22.6241 22.6226 22.739 22.4521C22.8539 22.2816 22.9158 22.0808 22.9168 21.8752V5.2085C22.9168 4.37969 22.5876 3.58484 22.0015 2.99879C21.4155 2.41274 20.6206 2.0835 19.7918 2.0835ZM20.8335 19.3647L18.4481 16.9689C18.3507 16.8724 18.2353 16.796 18.1084 16.7441C17.9815 16.6923 17.8456 16.666 17.7085 16.6668H5.2085C4.93223 16.6668 4.66728 16.5571 4.47193 16.3617C4.27658 16.1664 4.16683 15.9014 4.16683 15.6252V5.2085C4.16683 4.93223 4.27658 4.66728 4.47193 4.47193C4.66728 4.27658 4.93223 4.16683 5.2085 4.16683H19.7918C20.0681 4.16683 20.3331 4.27658 20.5284 4.47193C20.7238 4.66728 20.8335 4.93223 20.8335 5.2085V19.3647Z" fill="#00E467"/>
</svg>
