<svg width="33" height="36" viewBox="0 0 33 36" fill="none" xmlns="http://www.w3.org/2000/svg">
<g opacity="0.25">
<path opacity="0.25" d="M16.1806 11.752C14.9327 11.752 13.7128 12.122 12.6752 12.8153C11.6376 13.5086 10.8289 14.494 10.3514 15.6469C9.87383 16.7999 9.74888 18.0685 9.99233 19.2924C10.2358 20.5164 10.8367 21.6406 11.7191 22.523C12.6015 23.4054 13.7258 24.0064 14.9497 24.2498C16.1736 24.4933 17.4423 24.3683 18.5952 23.8908C19.7481 23.4132 20.7335 22.6045 21.4268 21.5669C22.1201 20.5293 22.4902 19.3094 22.4902 18.0615C22.4902 16.3881 21.8254 14.7832 20.6422 13.6C19.4589 12.4167 17.854 11.752 16.1806 11.752ZM16.1806 21.9348C15.4146 21.9348 14.6657 21.7076 14.0287 21.282C13.3918 20.8564 12.8953 20.2515 12.6022 19.5438C12.309 18.836 12.2323 18.0572 12.3818 17.3059C12.5312 16.5545 12.9001 15.8644 13.4418 15.3227C13.9835 14.781 14.6736 14.4121 15.425 14.2626C16.1763 14.1132 16.9551 14.1899 17.6629 14.483C18.3706 14.7762 18.9756 15.2727 19.4012 15.9096C19.8268 16.5466 20.0539 17.2954 20.0539 18.0615C20.0523 19.0877 19.6435 20.0713 18.9173 20.7964C18.1911 21.5214 17.2068 21.9287 16.1806 21.9287V21.9348Z" fill="#F2F2F2"/>
<path opacity="0.25" d="M29.4529 20.769L28.8361 20.399C29.1197 18.8473 29.1197 17.257 28.8361 15.7053L29.4529 15.3353C30.2894 14.6965 30.8638 13.7742 31.0681 12.7417C31.2724 11.7092 31.0924 10.6375 30.5621 9.72839C30.0317 8.81923 29.1875 8.13515 28.1882 7.80472C27.1889 7.47428 26.1033 7.52028 25.1355 7.93406L24.5187 8.30411C23.3199 7.27583 21.9392 6.48092 20.448 5.9604V5.22644C20.4699 4.65025 20.3753 4.07558 20.1699 3.5368C19.9645 2.99803 19.6525 2.50625 19.2526 2.09088C18.8526 1.6755 18.373 1.34508 17.8424 1.11938C17.3118 0.893684 16.7412 0.777344 16.1646 0.777344C15.588 0.777344 15.0173 0.893684 14.4867 1.11938C13.9561 1.34508 13.4765 1.6755 13.0766 2.09088C12.6767 2.50625 12.3647 2.99803 12.1592 3.5368C11.9538 4.07558 11.8592 4.65025 11.8811 5.22644V5.9604C10.3921 6.48453 9.01376 7.28141 7.81659 8.31028L7.19982 7.94024C6.71262 7.60836 6.1622 7.38052 5.58297 7.27099C5.00373 7.16147 4.40814 7.17259 3.8334 7.30367C3.25866 7.43475 2.71714 7.68297 2.24267 8.03281C1.76821 8.38265 1.371 8.82662 1.07587 9.33693C0.780747 9.84723 0.594048 10.4129 0.527446 10.9986C0.460845 11.5844 0.51577 12.1775 0.688791 12.741C0.861812 13.3046 1.14921 13.8264 1.53302 14.2738C1.91683 14.7212 2.3888 15.0847 2.91944 15.3415L3.53621 15.7053C3.25249 17.2591 3.25249 18.8514 3.53621 20.4051L2.91944 20.769C2.02499 21.3783 1.39412 22.3034 1.15347 23.3585C0.912823 24.4137 1.08021 25.5208 1.62203 26.4577C2.16385 27.3946 3.03999 28.0918 4.07458 28.4094C5.10917 28.7271 6.22562 28.6416 7.19982 28.1702L7.81659 27.8064C9.01873 28.83 10.3985 29.6244 11.8873 30.1501V30.884C11.9293 31.9919 12.399 33.0405 13.1977 33.8094C13.9964 34.5784 15.062 35.008 16.1707 35.008C17.2794 35.008 18.345 34.5784 19.1437 33.8094C19.9425 33.0405 20.4121 31.9919 20.4542 30.884V30.1501C21.943 29.6216 23.3226 28.8252 24.5249 27.8002L25.1416 28.1641C25.6281 28.5355 26.188 28.7993 26.7842 28.9378C27.3803 29.0764 27.9991 29.0867 28.5996 28.9679C29.2 28.8491 29.7683 28.604 30.2668 28.2489C30.7653 27.8937 31.1826 27.4367 31.491 26.908C31.7994 26.3793 31.9918 25.7911 32.0556 25.1824C32.1194 24.5737 32.053 23.9583 31.8608 23.3772C31.6687 22.7961 31.3551 22.2625 30.9411 21.8117C30.527 21.361 30.0218 21.0035 29.459 20.7628L29.4529 20.769ZM26.406 15.2181C26.9181 17.077 26.9181 19.0397 26.406 20.8986C26.3158 21.2227 26.3359 21.5677 26.4632 21.8792C26.5905 22.1907 26.8177 22.4511 27.1091 22.6193L28.7559 23.5691C28.9321 23.6668 29.087 23.7987 29.2117 23.9569C29.3364 24.1151 29.4283 24.2966 29.4821 24.4907C29.5359 24.6849 29.5505 24.8878 29.525 25.0876C29.4996 25.2875 29.4346 25.4802 29.3339 25.6547C29.2331 25.8291 29.0986 25.9818 28.9383 26.1037C28.7779 26.2256 28.5949 26.3144 28.3999 26.3649C28.2048 26.4153 28.0017 26.4264 27.8023 26.3975C27.603 26.3686 27.4113 26.3003 27.2387 26.1966L25.5919 25.2406C25.2991 25.0714 24.9584 25.0045 24.6234 25.0503C24.2884 25.096 23.9782 25.252 23.7416 25.4935C22.3871 26.8737 20.6808 27.857 18.8074 28.3368C18.4813 28.4202 18.1923 28.6097 17.9857 28.8755C17.7792 29.1412 17.6668 29.4681 17.6664 29.8047V31.7043C17.6796 31.9113 17.6503 32.1188 17.5801 32.314C17.51 32.5091 17.4006 32.6879 17.2587 32.8391C17.1168 32.9904 16.9454 33.1109 16.7551 33.1933C16.5648 33.2757 16.3596 33.3182 16.1522 33.3182C15.9448 33.3182 15.7396 33.2757 15.5493 33.1933C15.359 33.1109 15.1876 32.9904 15.0457 32.8391C14.9038 32.6879 14.7944 32.5091 14.7243 32.314C14.6542 32.1188 14.6248 31.9113 14.6381 31.7043V29.8047C14.6376 29.4681 14.5253 29.1412 14.3187 28.8755C14.1122 28.6097 13.8231 28.4202 13.497 28.3368C11.6222 27.8573 9.91521 26.8716 8.56288 25.4873C8.32724 25.2439 8.01638 25.0872 7.6806 25.0424C7.34481 24.9976 7.00374 25.0675 6.71257 25.2406L5.0658 26.1904C4.71995 26.3778 4.31484 26.4236 3.93591 26.318C3.55697 26.2125 3.23383 25.9639 3.03464 25.6247C2.83544 25.2856 2.77577 24.8823 2.86819 24.4999C2.96061 24.1176 3.19791 23.7861 3.53004 23.5753L5.17682 22.6255C5.46775 22.4583 5.69476 22.1991 5.82207 21.8886C5.94938 21.5781 5.96974 21.2342 5.87993 20.9109C5.36798 19.0499 5.36798 17.0852 5.87993 15.2243C5.96702 14.9003 5.9447 14.5566 5.81645 14.2465C5.6882 13.9365 5.46118 13.6774 5.17065 13.5096L3.53004 12.5598C3.17753 12.3488 2.92328 12.0064 2.82323 11.6079C2.72318 11.2095 2.78552 10.7876 2.99653 10.4351C3.20755 10.0825 3.54996 9.82829 3.94843 9.72824C4.3469 9.62819 4.76879 9.69054 5.1213 9.90156L6.76808 10.8575C7.05956 11.0296 7.40038 11.0988 7.73588 11.0541C8.07139 11.0093 8.38216 10.8533 8.61838 10.6109C9.9738 9.23185 11.6798 8.24875 13.5525 7.76752C13.8802 7.68478 14.1706 7.49461 14.3774 7.2274C14.5843 6.96019 14.6956 6.63138 14.6936 6.29348V4.39382C14.6936 3.99142 14.8534 3.60549 15.138 3.32095C15.4225 3.03641 15.8084 2.87655 16.2108 2.87655C16.6132 2.87655 16.9991 3.03641 17.2837 3.32095C17.5682 3.60549 17.7281 3.99142 17.7281 4.39382V6.29348C17.7282 6.62924 17.8396 6.95548 18.045 7.22111C18.2503 7.48675 18.538 7.67677 18.8629 7.76139C20.7373 8.24201 22.444 9.22759 23.7971 10.6109C24.0337 10.8524 24.3439 11.0083 24.6789 11.054C25.0139 11.0998 25.3546 11.0329 25.6474 10.8637L27.2201 9.90156C27.3922 9.78731 27.5857 9.70939 27.789 9.67257C27.9922 9.63574 28.2008 9.64082 28.402 9.68744C28.6031 9.73405 28.7927 9.82124 28.959 9.94368C29.1253 10.0661 29.2649 10.2212 29.3692 10.3995C29.4734 10.5777 29.5402 10.7754 29.5654 10.9804C29.5906 11.1854 29.5737 11.3933 29.5157 11.5915C29.4577 11.7897 29.3599 11.9741 29.2281 12.1331C29.0964 12.2922 28.9337 12.4227 28.7497 12.5166L27.1091 13.4665C26.819 13.6344 26.5926 13.8938 26.4654 14.204C26.3382 14.5142 26.3173 14.8578 26.406 15.1811V15.2181Z" fill="#F2F2F2"/>
</g>
</svg>
