<svg width="32" height="35" viewBox="0 0 32 35" fill="none" xmlns="http://www.w3.org/2000/svg">
<path opacity="0.25" d="M15.6845 11.0898C14.4366 11.0898 13.2168 11.4599 12.1792 12.1532C11.1416 12.8465 10.3328 13.8319 9.85529 14.9848C9.37773 16.1377 9.25278 17.4064 9.49624 18.6303C9.73969 19.8543 10.3406 20.9785 11.223 21.8609C12.1054 22.7433 13.2297 23.3443 14.4536 23.5877C15.6775 23.8312 16.9462 23.7062 18.0991 23.2287C19.252 22.7511 20.2374 21.9424 20.9307 20.9048C21.624 19.8672 21.9941 18.6473 21.9941 17.3994C21.9941 15.726 21.3293 14.1211 20.1461 12.9379C18.9628 11.7546 17.3579 11.0898 15.6845 11.0898ZM15.6845 21.2727C14.9185 21.2727 14.1696 21.0455 13.5327 20.6199C12.8957 20.1943 12.3992 19.5894 12.1061 18.8816C11.8129 18.1739 11.7362 17.3951 11.8857 16.6437C12.0351 15.8924 12.404 15.2022 12.9457 14.6606C13.4874 14.1189 14.1776 13.75 14.9289 13.6005C15.6803 13.4511 16.459 13.5278 17.1668 13.8209C17.8746 14.1141 18.4795 14.6105 18.9051 15.2475C19.3307 15.8845 19.5579 16.6333 19.5579 17.3994C19.5562 18.4256 19.1474 19.4092 18.4212 20.1343C17.695 20.8593 16.7107 21.2665 15.6845 21.2665V21.2727Z" fill="#00E467"/>
<path opacity="0.25" d="M28.9568 20.1069L28.34 19.7369C28.6236 18.1852 28.6236 16.5949 28.34 15.0432L28.9568 14.6732C29.7933 14.0344 30.3677 13.1121 30.572 12.0796C30.7763 11.0471 30.5963 9.97544 30.066 9.06628C29.5356 8.15713 28.6914 7.47304 27.6921 7.14261C26.6928 6.81217 25.6072 6.85817 24.6394 7.27195L24.0226 7.642C22.8238 6.61372 21.4431 5.81881 19.9519 5.29829V4.56433C19.9738 3.98814 19.8792 3.41347 19.6738 2.87469C19.4684 2.33592 19.1564 1.84414 18.7565 1.42877C18.3565 1.01339 17.8769 0.682971 17.3463 0.457273C16.8157 0.231575 16.2451 0.115234 15.6685 0.115234C15.0919 0.115234 14.5212 0.231575 13.9906 0.457273C13.46 0.682971 12.9804 1.01339 12.5805 1.42877C12.1806 1.84414 11.8686 2.33592 11.6632 2.87469C11.4577 3.41347 11.3631 3.98814 11.385 4.56433V5.29829C9.89601 5.82242 8.51767 6.61931 7.32049 7.64817L6.70372 7.27813C6.21652 6.94625 5.66611 6.71841 5.08687 6.60888C4.50764 6.49936 3.91205 6.51048 3.33731 6.64156C2.76257 6.77264 2.22104 7.02086 1.74658 7.3707C1.27211 7.72054 0.874903 8.16452 0.579778 8.67482C0.284653 9.18512 0.0979538 9.7508 0.0313524 10.3365C-0.0352491 10.9222 0.0196765 11.5154 0.192697 12.0789C0.365718 12.6425 0.653115 13.1642 1.03692 13.6117C1.42073 14.0591 1.89271 14.4226 2.42334 14.6794L3.04011 15.0432C2.75639 16.597 2.75639 18.1893 3.04011 19.743L2.42334 20.1069C1.5289 20.7162 0.898026 21.6413 0.657378 22.6964C0.416729 23.7516 0.584117 24.8587 1.12594 25.7956C1.66775 26.7325 2.5439 27.4297 3.57849 27.7473C4.61308 28.065 5.72953 27.9795 6.70372 27.5081V27.5081L7.32049 27.1443C8.52264 28.1679 9.90237 28.9622 11.3912 29.488V30.2219C11.4332 31.3298 11.9029 32.3784 12.7016 33.1473C13.5003 33.9163 14.5659 34.3459 15.6746 34.3459C16.7833 34.3459 17.8489 33.9163 18.6477 33.1473C19.4464 32.3784 19.916 31.3298 19.9581 30.2219V29.488C21.4469 28.9595 22.8266 28.1631 24.0288 27.1381L24.6455 27.502C25.132 27.8734 25.6919 28.1372 26.2881 28.2757C26.8842 28.4143 27.503 28.4246 28.1035 28.3058C28.7039 28.187 29.2722 27.9419 29.7707 27.5868C30.2692 27.2316 30.6865 26.7746 30.9949 26.2459C31.3033 25.7172 31.4957 25.129 31.5595 24.5203C31.6233 23.9115 31.5569 23.2962 31.3647 22.7151C31.1726 22.134 30.8591 21.6003 30.445 21.1496C30.0309 20.6989 29.5257 20.3414 28.9629 20.1007V20.1007L28.9568 20.1069ZM25.9099 14.556C26.422 16.4149 26.422 18.3776 25.9099 20.2364C25.8197 20.5606 25.8398 20.9056 25.9671 21.2171C26.0944 21.5286 26.3216 21.789 26.613 21.9572L28.2598 22.907C28.436 23.0047 28.5909 23.1366 28.7156 23.2948C28.8403 23.453 28.9322 23.6345 28.986 23.8286C29.0398 24.0228 29.0544 24.2257 29.0289 24.4255C29.0035 24.6254 28.9385 24.8181 28.8378 24.9926C28.737 25.167 28.6025 25.3197 28.4422 25.4416C28.2818 25.5635 28.0988 25.6523 27.9038 25.7028C27.7087 25.7532 27.5056 25.7643 27.3062 25.7354C27.1069 25.7065 26.9152 25.6382 26.7426 25.5345V25.5345L25.0958 24.5785C24.803 24.4093 24.4623 24.3424 24.1273 24.3881C23.7923 24.4339 23.4821 24.5899 23.2455 24.8314C21.891 26.2116 20.1847 27.1949 18.3113 27.6747C17.9853 27.7581 17.6962 27.9476 17.4896 28.2134C17.2831 28.4791 17.1707 28.806 17.1703 29.1426V31.0422C17.1835 31.2492 17.1542 31.4567 17.084 31.6519C17.0139 31.847 16.9045 32.0257 16.7626 32.177C16.6207 32.3282 16.4493 32.4488 16.259 32.5312C16.0687 32.6136 15.8635 32.6561 15.6561 32.6561C15.4487 32.6561 15.2435 32.6136 15.0532 32.5312C14.8629 32.4488 14.6915 32.3282 14.5496 32.177C14.4077 32.0257 14.2983 31.847 14.2282 31.6519C14.1581 31.4567 14.1287 31.2492 14.142 31.0422V29.1426C14.1415 28.806 14.0292 28.4791 13.8226 28.2134C13.6161 27.9476 13.327 27.7581 13.0009 27.6747C11.1261 27.1952 9.41912 26.2095 8.06678 24.8252C7.83114 24.5818 7.52029 24.425 7.1845 24.3803C6.84872 24.3355 6.50765 24.4053 6.21648 24.5785L4.5697 25.5283C4.22386 25.7157 3.81875 25.7615 3.43981 25.6559C3.06088 25.5504 2.73774 25.3018 2.53854 24.9626C2.33935 24.6235 2.27967 24.2202 2.37209 23.8378C2.46452 23.4555 2.70181 23.1239 3.03394 22.9132V22.9132L4.68072 21.9634C4.97165 21.7962 5.19867 21.5369 5.32598 21.2265C5.45329 20.916 5.47364 20.572 5.38384 20.2487C4.87188 18.3878 4.87188 16.4231 5.38384 14.5622C5.47092 14.2381 5.44861 13.8945 5.32035 13.5844C5.1921 13.2744 4.96509 13.0153 4.67455 12.8475L3.03394 11.8977C2.68143 11.6867 2.42719 11.3443 2.32714 10.9458C2.22709 10.5474 2.28942 10.1255 2.50044 9.77295C2.71145 9.42044 3.05386 9.16618 3.45234 9.06613C3.85081 8.96608 4.2727 9.02843 4.62521 9.23945L6.27198 10.1954C6.56347 10.3675 6.90428 10.4367 7.23979 10.392C7.57529 10.3472 7.88606 10.1912 8.12229 9.94875C9.47771 8.56974 11.1837 7.58664 13.0564 7.10542C13.3841 7.02267 13.6745 6.8325 13.8813 6.56529C14.0882 6.29808 14.1995 5.96927 14.1975 5.63137V3.73171C14.1975 3.32931 14.3573 2.94338 14.6419 2.65884C14.9264 2.3743 15.3123 2.21445 15.7147 2.21445C16.1171 2.21445 16.503 2.3743 16.7876 2.65884C17.0721 2.94338 17.232 3.32931 17.232 3.73171V5.63137C17.2321 5.96713 17.3435 6.29337 17.5489 6.559C17.7542 6.82464 18.0419 7.01466 18.3668 7.09928C20.2412 7.5799 21.9479 8.56548 23.301 9.94875C23.5376 10.1902 23.8479 10.3462 24.1828 10.3919C24.5178 10.4377 24.8585 10.3708 25.1513 10.2016L26.7241 9.23945C26.8961 9.1252 27.0897 9.04728 27.2929 9.01046C27.4961 8.97363 27.7047 8.97871 27.9059 9.02533C28.107 9.07194 28.2966 9.15913 28.4629 9.28157C28.6292 9.40401 28.7688 9.55911 28.8731 9.73737C28.9773 9.91564 29.0441 10.1133 29.0693 10.3183C29.0945 10.5233 29.0776 10.7312 29.0196 10.9294C28.9616 11.1276 28.8638 11.3119 28.7321 11.471C28.6003 11.6301 28.4376 11.7606 28.2536 11.8545V11.8545L26.613 12.8044C26.3229 12.9723 26.0965 13.2316 25.9693 13.5418C25.8421 13.852 25.8212 14.1957 25.9099 14.519V14.556Z" fill="#00E467"/>
</svg>
