<svg width="25" height="25" viewBox="0 0 25 25" fill="none" xmlns="http://www.w3.org/2000/svg">
<path opacity="0.5" d="M22.2085 9.94808L20.2397 9.29183L21.1668 7.43767C21.2608 7.24359 21.2922 7.02513 21.2568 6.81243C21.2213 6.59973 21.1208 6.40327 20.9689 6.25017L18.7502 4.03142C18.5962 3.87734 18.3979 3.77538 18.183 3.73988C17.9681 3.70438 17.7476 3.73712 17.5522 3.8335L15.6981 4.76058L15.0418 2.79183C14.9725 2.58662 14.841 2.40811 14.6655 2.28115C14.49 2.1542 14.2793 2.08511 14.0627 2.0835H10.9377C10.7193 2.08294 10.5063 2.15102 10.3287 2.27813C10.1511 2.40523 10.018 2.58494 9.94808 2.79183L9.29183 4.76058L7.43767 3.8335C7.24359 3.73952 7.02513 3.70809 6.81243 3.74354C6.59973 3.77899 6.40327 3.87957 6.25017 4.03142L4.03142 6.25017C3.87734 6.40409 3.77538 6.60243 3.73988 6.81731C3.70438 7.03218 3.73712 7.25278 3.8335 7.44808L4.76058 9.30225L2.79183 9.9585C2.58662 10.0278 2.40811 10.1594 2.28115 10.3349C2.1542 10.5104 2.08511 10.7211 2.0835 10.9377V14.0627C2.08294 14.281 2.15102 14.4941 2.27813 14.6717C2.40523 14.8492 2.58494 14.9824 2.79183 15.0522L4.76058 15.7085L3.8335 17.5627C3.73952 17.7567 3.70809 17.9752 3.74354 18.1879C3.77899 18.4006 3.87957 18.5971 4.03142 18.7502L6.25017 20.9689C6.40409 21.123 6.60243 21.225 6.81731 21.2605C7.03218 21.296 7.25278 21.2632 7.44808 21.1668L9.30225 20.2397L9.9585 22.2085C10.0284 22.4154 10.1615 22.5951 10.3391 22.7222C10.5167 22.8493 10.7297 22.9174 10.9481 22.9168H14.0731C14.2915 22.9174 14.5045 22.8493 14.6821 22.7222C14.8596 22.5951 14.9928 22.4154 15.0627 22.2085L15.7189 20.2397L17.5731 21.1668C17.7659 21.2584 17.9822 21.2886 18.1928 21.2532C18.4033 21.2178 18.5979 21.1186 18.7502 20.9689L20.9689 18.7502C21.123 18.5962 21.225 18.3979 21.2605 18.183C21.296 17.9681 21.2632 17.7476 21.1668 17.5522L20.2397 15.6981L22.2085 15.0418C22.4137 14.9725 22.5922 14.841 22.7192 14.6655C22.8461 14.49 22.9152 14.2793 22.9168 14.0627V10.9377C22.9174 10.7193 22.8493 10.5063 22.7222 10.3287C22.5951 10.1511 22.4154 10.018 22.2085 9.94808ZM20.8335 13.3127L19.5835 13.7293C19.2961 13.8226 19.0323 13.9772 18.8106 14.1826C18.5889 14.3879 18.4146 14.639 18.2996 14.9185C18.1846 15.1979 18.1319 15.4991 18.1449 15.801C18.158 16.1029 18.2365 16.3983 18.3752 16.6668L18.9689 17.8543L17.8231 19.0002L16.6668 18.3752C16.3997 18.2421 16.1071 18.1679 15.8088 18.1578C15.5105 18.1476 15.2136 18.2016 14.938 18.3162C14.6624 18.4308 14.4147 18.6032 14.2115 18.8219C14.0084 19.0405 13.8546 19.3003 13.7606 19.5835L13.3439 20.8335H11.6877L11.271 19.5835C11.1778 19.2961 11.0231 19.0323 10.8178 18.8106C10.6124 18.5889 10.3613 18.4146 10.0819 18.2996C9.80239 18.1846 9.50126 18.1319 9.19936 18.1449C8.89746 18.158 8.602 18.2365 8.3335 18.3752L7.146 18.9689L6.00017 17.8231L6.62517 16.6668C6.76381 16.3983 6.84237 16.1029 6.85542 15.801C6.86847 15.4991 6.81568 15.1979 6.70073 14.9185C6.58577 14.639 6.41139 14.3879 6.18969 14.1826C5.96799 13.9772 5.70427 13.8226 5.41683 13.7293L4.16683 13.3127V11.6877L5.41683 11.271C5.70427 11.1778 5.96799 11.0231 6.18969 10.8178C6.41139 10.6124 6.58577 10.3613 6.70073 10.0819C6.81568 9.80239 6.86847 9.50126 6.85542 9.19936C6.84237 8.89746 6.76381 8.602 6.62517 8.3335L6.03142 7.17725L7.17725 6.03142L8.3335 6.62517C8.602 6.76381 8.89746 6.84237 9.19936 6.85542C9.50126 6.86847 9.80239 6.81568 10.0819 6.70073C10.3613 6.58577 10.6124 6.41139 10.8178 6.18969C11.0231 5.96799 11.1778 5.70427 11.271 5.41683L11.6877 4.16683H13.3127L13.7293 5.41683C13.8226 5.70427 13.9772 5.96799 14.1826 6.18969C14.3879 6.41139 14.639 6.58577 14.9185 6.70073C15.1979 6.81568 15.4991 6.86847 15.801 6.85542C16.1029 6.84237 16.3983 6.76381 16.6668 6.62517L17.8543 6.03142L19.0002 7.17725L18.3752 8.3335C18.2421 8.60063 18.1679 8.89324 18.1578 9.19151C18.1476 9.48978 18.2016 9.78676 18.3162 10.0623C18.4308 10.3379 18.6032 10.5857 18.8219 10.7888C19.0405 10.9919 19.3003 11.1457 19.5835 11.2397L20.8335 11.6564V13.3127ZM12.5002 8.3335C11.6761 8.3335 10.8705 8.57787 10.1853 9.03571C9.50009 9.49355 8.96603 10.1443 8.65067 10.9057C8.3353 11.667 8.25279 12.5048 8.41356 13.313C8.57433 14.1213 8.97117 14.8637 9.55389 15.4464C10.1366 16.0292 10.879 16.426 11.6873 16.5868C12.4955 16.7475 13.3333 16.665 14.0947 16.3497C14.856 16.0343 15.5068 15.5002 15.9646 14.815C16.4225 14.1298 16.6668 13.3243 16.6668 12.5002C16.6668 11.3951 16.2278 10.3353 15.4464 9.55389C14.665 8.77249 13.6052 8.3335 12.5002 8.3335V8.3335ZM12.5002 14.5835C12.0881 14.5835 11.6853 14.4613 11.3427 14.2324C11.0001 14.0035 10.7331 13.6781 10.5754 13.2974C10.4177 12.9167 10.3765 12.4979 10.4569 12.0937C10.5372 11.6896 10.7357 11.3184 11.027 11.027C11.3184 10.7357 11.6896 10.5372 12.0937 10.4569C12.4979 10.3765 12.9167 10.4177 13.2974 10.5754C13.6781 10.7331 14.0035 11.0001 14.2324 11.3427C14.4613 11.6853 14.5835 12.0881 14.5835 12.5002C14.5835 13.0527 14.364 13.5826 13.9733 13.9733C13.5826 14.364 13.0527 14.5835 12.5002 14.5835Z" fill="#F2F2F2"/>
</svg>
